<svg width="1440" height="1417" viewBox="0 0 1440 1417" fill="none" xmlns="http://www.w3.org/2000/svg">
<path d="M521 707.428L548.88 990.147L1618.44 921.17L1685.38 300H1309.37L521 707.428Z" fill="#FF5500"/>
<path d="M214 281.999L234.5 145.499L172 88.4993L151 212.999L214 281.999Z" fill="#5E40EB"/>
<path d="M1295 177.499L1275.5 40.999L1241 59.9993L1256.5 209.999L1295 177.499Z" fill="#5E40EB"/>
<path d="M1282.38 254.338L1254.5 0L184.937 62.0537L118 620.863H494.012L1282.38 254.338Z" fill="#FF5500"/>
<path d="M172 88.4991L1275.5 40.9992L1295 177.499L151 212.999L172 88.4991Z" fill="#6849FE"/>
<path d="M448.38 1009.57L420.5 726.853L-649.063 795.83L-716 1417H-339.988L448.38 1009.57Z" fill="#FF5500"/>
</svg>
