<svg width="1440" height="2685" viewBox="0 0 1440 2685" fill="none" xmlns="http://www.w3.org/2000/svg">
<path d="M-111.154 2020.66C-98.7693 2021.48 -86.3848 2022.31 -13.5414 2022.74C59.302 2023.16 192.229 2023.16 261.945 2024.4C340.381 2025.79 353.303 2040.62 363.348 2046.49C367.531 2048.93 369.19 2058.14 372.943 2080.09C387.084 2162.82 369.215 2187.39 367.138 2202.82C365.171 2217.45 361.709 2235.72 357.556 2264.48C354.141 2288.13 354.203 2311.58 350.05 2350.35C347.412 2374.97 345.046 2391.69 338.804 2404.67C336.449 2409.56 329.209 2410.11 320.503 2412.61C304.971 2417.07 270.214 2406.86 231.046 2396.44C187.241 2384.78 139.989 2373.48 117.021 2368.03C88.2993 2361.77 55.6993 2356.77 15.1556 2353.44C-19.6085 2351.76 -83.1823 2350.11 -148.683 2348.41" stroke="#C2E6E1" stroke-width="500" stroke-linecap="round"/>
<path d="M-108.643 1494.12C-112.304 1491.26 -115.966 1488.41 -53.5267 1473.68C8.91231 1458.95 137.563 1432.43 213.601 1426.38C357.155 1414.97 378.482 1479.24 429.815 1503.8C442.574 1509.91 460.953 1505.75 479.111 1499.13C497.27 1492.52 516.675 1480.22 583.376 1404.96C650.078 1329.71 763.487 1191.86 830.392 1113.75C897.297 1035.64 914.261 1021.44 935.365 1008.34C981.123 979.94 1057.04 980.172 1172.15 987.206C1234.58 991.02 1307.1 975.414 1369.33 961.143C1474.19 937.095 1548.31 858.009 1591.27 771.626C1658.18 637.06 1797.1 743.746 1856.93 698.721C1882.84 682.095 1899.7 678.099 1917.06 673.983" stroke="url(#paint0_linear_290_5)" stroke-width="300" stroke-linecap="round"/>
<path d="M1364.4 2630.23L1373.19 2627.46L1500.96 1864L1364.4 2630.23ZM1492.27 1866.24L1500.96 1864L886.31 1864L1492.27 1866.24ZM1492.27 1866.24L1364.4 2630.23L1500.96 1864L1492.27 1866.24ZM877.187 1866.24H1492.27L886.31 1864L877.187 1866.24ZM1355.6 2633.01L1364.4 2630.23L1492.27 1866.24L1355.6 2633.01ZM1483.55 1868.49L1492.27 1866.24H877.187L1483.55 1868.49ZM1483.55 1868.49L1355.6 2633.01L1492.27 1866.24L1483.55 1868.49ZM868.051 1868.49H1483.55L877.187 1866.24L868.051 1868.49ZM1346.79 2635.79L1355.6 2633.01L1483.55 1868.49L1346.79 2635.79ZM1474.83 1870.74L1483.55 1868.49H868.051L1474.83 1870.74ZM1474.83 1870.74L1346.79 2635.79L1483.55 1868.49L1474.83 1870.74ZM858.902 1870.74H1474.83L868.051 1868.49L858.902 1870.74ZM1337.97 2638.57L1346.79 2635.79L1474.83 1870.74L1337.97 2638.57ZM1466.1 1872.99L1474.83 1870.74H858.902L1466.1 1872.99ZM1466.1 1872.99L1337.97 2638.57L1474.83 1870.74L1466.1 1872.99ZM849.74 1872.99H1466.1L858.902 1870.74L849.74 1872.99ZM1329.13 2641.35L1337.97 2638.57L1466.1 1872.99L1329.13 2641.35ZM1457.35 1875.25L1466.1 1872.99H849.74L1457.35 1875.25ZM1457.35 1875.25L1329.13 2641.35L1466.1 1872.99L1457.35 1875.25ZM840.566 1875.25H1457.35L849.74 1872.99L840.566 1875.25ZM1320.29 2644.14L1329.13 2641.35L1457.35 1875.25L1320.29 2644.14ZM1448.59 1877.51L1457.35 1875.25H840.566L1448.59 1877.51ZM1448.59 1877.51L1320.29 2644.14L1457.35 1875.25L1448.59 1877.51ZM831.379 1877.51H1448.59L840.566 1875.25L831.379 1877.51ZM1311.43 2646.94L1320.29 2644.14L1448.59 1877.51L1311.43 2646.94ZM1439.82 1879.77L1448.59 1877.51H831.379L1439.82 1879.77ZM1439.82 1879.77L1311.43 2646.94L1448.59 1877.51L1439.82 1879.77ZM822.18 1879.77H1439.82L831.379 1877.51L822.18 1879.77ZM1302.55 2649.74L1311.43 2646.94L1439.82 1879.77L1302.55 2649.74ZM1431.04 1882.03L1439.82 1879.77H822.18L1431.04 1882.03ZM1431.04 1882.03L1302.55 2649.74L1439.82 1879.77L1431.04 1882.03ZM812.967 1882.03L1431.04 1882.03L822.18 1879.77L812.967 1882.03ZM1293.67 2652.54L1302.55 2649.74L1431.04 1882.03L1293.67 2652.54ZM1422.24 1884.3L1431.04 1882.03L812.967 1882.03L1422.24 1884.3ZM1422.24 1884.3L1293.67 2652.54L1431.04 1882.03L1422.24 1884.3ZM803.742 1884.3H1422.24L812.967 1882.03L803.742 1884.3ZM1284.77 2655.34L1293.67 2652.54L1422.24 1884.3L1284.77 2655.34ZM1413.43 1886.57L1422.24 1884.3H803.742L1413.43 1886.57ZM1413.43 1886.57L1284.77 2655.34L1422.24 1884.3L1413.43 1886.57ZM794.504 1886.57H1413.43L803.742 1884.3L794.504 1886.57ZM1275.86 2658.15L1284.77 2655.34L1413.43 1886.57L1275.86 2658.15ZM1404.61 1888.85L1413.43 1886.57H794.504L1404.61 1888.85ZM1404.61 1888.85L1275.86 2658.15L1413.43 1886.57L1404.61 1888.85ZM785.253 1888.85H1404.61L794.504 1886.57L785.253 1888.85ZM1266.94 2660.97L1275.86 2658.15L1404.61 1888.85L1266.94 2660.97ZM1395.78 1891.13L1404.61 1888.85H785.253L1395.78 1891.13ZM1395.78 1891.13L1266.94 2660.97L1404.61 1888.85L1395.78 1891.13ZM775.989 1891.13L1395.78 1891.13L785.253 1888.85L775.989 1891.13ZM1258 2663.78L1266.94 2660.97L1395.78 1891.13L1258 2663.78ZM1386.93 1893.41L1395.78 1891.13L775.989 1891.13L1386.93 1893.41ZM1386.93 1893.41L1258 2663.78L1395.78 1891.13L1386.93 1893.41ZM766.712 1893.41L1386.93 1893.41L775.989 1891.13L766.712 1893.41ZM1249.06 2666.6L1258 2663.78L1386.93 1893.41L1249.06 2666.6ZM1378.08 1895.69L1386.93 1893.41L766.712 1893.41L1378.08 1895.69ZM1378.08 1895.69L1249.06 2666.6L1386.93 1893.41L1378.08 1895.69ZM757.423 1895.69H1378.08L766.712 1893.41L757.423 1895.69Z" fill="#CC4D0E"/>
<path d="M1350.19 2062.32L1264.3 2051.02C1264.03 2050.98 1263.76 2051.17 1263.72 2051.45L1245.1 2156.08C1245.05 2156.35 1245.24 2156.6 1245.51 2156.63L1332.49 2168.08L1249.06 2666.6L946.701 2674.49L977.478 2489.83C977.526 2489.54 977.314 2489.27 977.021 2489.25L853.254 2480.44C853.013 2480.43 852.794 2480.59 852.734 2480.82L802.755 2678.24L570 2684.31L655.107 2326.2L806.291 2346.87C806.565 2346.9 806.824 2346.71 806.871 2346.44L824.794 2241.81C824.84 2241.54 824.656 2241.29 824.383 2241.25L679.987 2221.51L757.422 1895.69H1378.08L1350.19 2062.32ZM1143.81 2293.46C1143.54 2293.42 1143.28 2293.61 1143.23 2293.88L1125.31 2398.51C1125.26 2398.78 1125.44 2399.03 1125.72 2399.07L1285.67 2420.94C1285.94 2420.97 1286.2 2420.78 1286.25 2420.51L1304.17 2315.88C1304.21 2315.61 1304.03 2315.36 1303.76 2315.32L1143.81 2293.46ZM912.188 2255.6C911.914 2255.56 911.654 2255.75 911.607 2256.02L893.685 2360.65C893.638 2360.92 893.822 2361.18 894.096 2361.21L1054.04 2383.08C1054.32 2383.12 1054.58 2382.92 1054.62 2382.65L1072.55 2278.02C1072.59 2277.75 1072.41 2277.5 1072.13 2277.46L912.188 2255.6ZM1023.77 2013.16C1023.49 2013.12 1023.23 2013.31 1023.18 2013.59L1004.57 2118.22C1004.52 2118.49 1004.7 2118.74 1004.98 2118.77L1171.12 2140.64C1171.39 2140.68 1171.65 2140.49 1171.7 2140.22L1190.31 2035.59C1190.36 2035.31 1190.18 2035.06 1189.91 2035.03L1023.77 2013.16ZM766.48 1976.94C766.207 1976.91 765.946 1977.1 765.897 1977.37L747.284 2082C747.236 2082.27 747.419 2082.52 747.692 2082.56L913.832 2104.43C914.106 2104.47 914.367 2104.27 914.415 2104L933.028 1999.37C933.076 1999.1 932.894 1998.85 932.62 1998.81L766.48 1976.94Z" fill="#FF5500"/>
<defs>
<linearGradient id="paint0_linear_290_5" x1="985.758" y1="1200.17" x2="1238.69" y2="1524.35" gradientUnits="userSpaceOnUse">
<stop stop-color="#C2E6E1"/>
<stop offset="0.918269" stop-color="white"/>
</linearGradient>
</defs>
</svg>
