<svg width="85" height="83" viewBox="0 0 85 83" fill="none" xmlns="http://www.w3.org/2000/svg">
<path d="M82.6064 14.2959L76.3467 13.4727C76.073 13.4366 75.8111 13.6276 75.7627 13.8994L73.9619 24.0244C73.9136 24.2963 74.0963 24.546 74.3701 24.582L80.7451 25.4209L78.1445 40.9541L63.6719 38.9766C63.3986 38.9395 63.1396 39.1296 63.0928 39.4014L61.3584 49.5254C61.3118 49.7976 61.4959 50.0485 61.7695 50.0859L76.2852 52.0693L71.4287 81.0908L42.0186 81.8574L45.6523 60.0576C45.7008 59.7669 45.4883 59.4975 45.1943 59.4766L33.04 58.6113C32.7985 58.5941 32.579 58.7526 32.5195 58.9873L26.627 82.2588L0 82.9531L19.7148 0H85L82.6064 14.2959ZM39.3086 34.9951C39.035 34.9578 38.7751 35.1478 38.7285 35.4199L36.9951 45.5439C36.9487 45.8159 37.132 46.0669 37.4053 46.1045L53.3438 48.2832C53.6173 48.3205 53.8772 48.1296 53.9238 47.8574L55.6582 37.7334C55.7045 37.4616 55.5203 37.2114 55.2471 37.1738L39.3086 34.9951ZM13.2471 31.1855C12.9736 31.1484 12.7146 31.3384 12.668 31.6104L10.9336 41.7344C10.887 42.0065 11.0712 42.2575 11.3447 42.2949L27.2822 44.4736C27.5557 44.511 27.8155 44.3208 27.8623 44.0488L29.5967 33.9248C29.6433 33.6526 29.4591 33.4017 29.1855 33.3643L13.2471 31.1855ZM51.0459 9.49023C50.7721 9.4542 50.5113 9.64609 50.4629 9.91797L48.6611 20.043C48.6131 20.3146 48.7958 20.5635 49.0693 20.5996L65.6582 22.7842C65.932 22.8202 66.1928 22.6283 66.2412 22.3564L68.043 12.2314C68.0911 11.9598 67.9083 11.7099 67.6348 11.6738L51.0459 9.49023ZM23.9824 5.68164C23.7086 5.6456 23.4468 5.83652 23.3984 6.1084L21.5977 16.2334C21.5494 16.5052 21.7321 16.755 22.0059 16.791L38.5947 18.9746C38.8684 19.0105 39.1294 18.8187 39.1777 18.5469L40.9785 8.42285C41.0269 8.15098 40.8441 7.90127 40.5703 7.86523L23.9824 5.68164Z" fill="#F1692E"/>
</svg>
