<svg width="1231" height="621" viewBox="0 0 1231 621" fill="none" xmlns="http://www.w3.org/2000/svg">
<path d="M726.5 214L827.5 49.5L835.5 107.5L749 259.5L726.5 214Z" fill="#5E40EB"/>
<path d="M1168 268.5L1188.5 106L1230.5 53L1212.5 220.5L1168 268.5Z" fill="#5E40EB"/>
<path d="M22.5 222.863L0 40.3633L50 122.363L60 275.863L22.5 222.863Z" fill="#5E40EB"/>
<path d="M618.901 117.7L738.5 40.8633L626.68 222.978L527.5 276.863L618.901 117.7Z" fill="#5E40EB"/>
<path d="M1156.5 620.863L506.729 583.165L879.145 0H1224.56L1156.5 620.863ZM384.337 576.063L86.9365 558.81L20 0H752.218L384.337 576.063Z" fill="#FF5500"/>
<path d="M0 40.3633L738.013 40.3633L626.193 222.863L21.8778 222.863L0 40.3633Z" fill="#6849FE"/>
<path d="M0 40.3633L738.013 40.3633L626.193 222.863L21.8778 222.863L0 40.3633Z" fill="#6849FE"/>
<path d="M827.5 49.5L1230.5 53L1212.5 220.5L726.5 214L827.5 49.5Z" fill="#6849FE"/>
</svg>
