<svg width="1440" height="1481" viewBox="0 0 1440 1481" fill="none" xmlns="http://www.w3.org/2000/svg">
<path d="M1335.13 622.49H1332.01V665H1303.74V563.015H1332.01L1364.58 620.54H1367.7L1400.07 563.015H1428.34V665H1400.07V622.49H1396.95L1380.18 652.13H1351.9L1335.13 622.49Z" fill="#FF5500"/>
<path d="M1253.6 611.57H1250.48L1211.09 665H1182.81V563.015H1211.09V616.445H1214.21L1253.6 563.015H1281.87V665H1253.6V611.57Z" fill="#FF5500"/>
<path d="M1106.25 563.015H1134.52V638.675H1163.77V696.2H1135.5V665H993.146V563.015H1021.42V638.675H1049.7V563.015H1077.97V638.675H1106.25V563.015Z" fill="#FF5500"/>
<path d="M927.583 666.95C898.138 666.95 884.878 648.035 880.978 627.17H860.698V665H832.423V563.015H860.698V600.845H880.978C884.878 579.98 898.138 561.065 927.583 561.065C963.073 561.065 975.358 588.365 975.358 614.105C975.358 639.65 963.073 666.95 927.583 666.95ZM927.583 640.625C943.378 640.625 947.083 629.12 947.083 614.105C947.083 598.895 943.378 587.39 927.583 587.39C911.788 587.39 908.278 598.895 908.278 614.105C908.278 629.12 911.788 640.625 927.583 640.625Z" fill="#FF5500"/>
<path d="M745.978 666.95C722.188 666.95 711.073 649.79 711.073 632.825C711.073 615.86 722.188 598.7 745.978 598.7C761.188 598.7 768.793 603.575 773.083 610.4V587.975H721.018V563.015H801.358V638.09H814.618V665H773.083V655.25C768.793 662.075 761.188 666.95 745.978 666.95ZM756.313 644.135C768.988 644.135 773.083 638.87 773.083 632.825C773.083 626.78 768.988 621.515 756.313 621.515C743.443 621.515 739.348 626.78 739.348 632.825C739.348 638.87 743.443 644.135 756.313 644.135Z" fill="#FF5500"/>
<path d="M666.831 589.34H618.471V665H590.196V563.015H695.106V665H666.831V589.34Z" fill="#FF5500"/>
<path d="M540.058 563.015H568.333V696.2H482.533V669.875H540.058V645.89C534.208 652.325 524.653 656.225 512.953 656.225C481.948 656.225 469.273 639.065 469.273 611.375V563.015H497.548V609.815C497.548 623.465 504.568 629.9 518.803 629.9C533.038 629.9 540.058 623.465 540.058 609.815V563.015Z" fill="#FF5500"/>
<path d="M92.4953 589.34H44.1354V665H15.8604V563.015H120.77V665H92.4953V589.34Z" fill="#FF5500"/>
<path d="M1400.04 482.57H1396.92L1357.53 536H1329.25V434.015H1357.53V487.445H1360.65L1400.04 434.015H1428.31V536H1400.04V482.57Z" fill="#FF5500"/>
<path d="M-504.27 589.73C-506.957 585.944 -509.645 582.157 -445.605 585.971C-381.565 589.786 -250.717 601.317 -176.144 617.355C-35.356 647.634 -33.3801 715.327 8.74175 753.589C19.2108 763.099 38.0093 764.395 57.3033 763.269C76.5973 762.144 98.7152 755.938 184.214 702.999C269.712 650.06 417.921 550.576 504.435 494.962C590.948 439.347 611.274 430.616 635.251 424.126C687.236 410.055 759.887 432.071 868.14 471.858C926.846 493.434 1000.79 499.305 1064.5 503.5C1171.85 510.568 1265.56 456.091 1331.5 385.676C1434.23 275.983 1536.67 418.06 1606.91 392.11C1636.5 383.62 1653.8 384.633 1671.62 385.676" stroke="url(#paint0_linear_190_3)" stroke-width="150" stroke-linecap="round"/>
<path d="M453.245 589.34H418.34V665H390.065V589.34H355.16V563.015H453.245V589.34Z" fill="#FF5500"/>
<path d="M301.427 666.95C269.057 666.95 254.042 644.72 254.042 614.105C254.042 583.49 269.057 561.065 301.427 561.065C332.042 561.065 347.057 582.71 347.057 605.915H318.782C318.002 595.385 315.467 587.39 301.622 587.39C285.047 587.39 282.317 597.53 282.317 614.105C282.317 630.68 285.047 640.625 301.622 640.625C315.467 640.625 318.002 632.63 318.782 622.1H347.057C347.057 645.305 332.042 666.95 301.427 666.95Z" fill="#FF5500"/>
<path d="M184.934 666.95C152.369 666.95 135.404 644.72 135.404 614.105C135.404 583.49 152.369 561.065 184.934 561.065C217.499 561.065 234.464 583.49 234.464 614.105C234.464 644.72 217.499 666.95 184.934 666.95ZM184.934 640.625C200.729 640.625 206.189 633.605 206.189 614.105C206.189 594.605 200.729 587.39 184.934 587.39C169.334 587.39 163.679 594.605 163.679 614.105C163.679 633.605 169.334 640.625 184.934 640.625Z" fill="#FF5500"/>
<path d="M175 604H194.61V623.61H175V604Z" fill="#FF5500"/>
<path d="M1155.21 536H1106.07V434.015H1134.35V464.825H1155.21C1182.9 464.825 1192.26 480.815 1192.26 500.51C1192.26 520.01 1182.9 536 1155.21 536ZM1205.33 434.015H1233.6V536H1205.33V434.015ZM1152.09 491.15H1134.35V509.675H1152.09C1160.87 509.675 1163.99 508.115 1163.99 500.51C1163.99 492.71 1160.87 491.15 1152.09 491.15Z" fill="#FF5500"/>
<path d="M1090.42 460.34H1055.52V536H1027.24V460.34H992.338V434.015H1090.42V460.34Z" fill="#FF5500"/>
<path d="M923.896 498.365H908.686V536H880.411V434.015H908.686V472.04H923.701L948.271 434.015H982.201L946.906 485.3L982.201 536H948.271L923.896 498.365Z" fill="#FF5500"/>
<path d="M793.967 537.95C770.177 537.95 759.062 520.79 759.062 503.825C759.062 486.86 770.177 469.7 793.967 469.7C809.177 469.7 816.782 474.575 821.072 481.4V458.975H769.007V434.015H849.346V509.09H862.607V536H821.072V526.25C816.782 533.075 809.177 537.95 793.967 537.95ZM804.302 515.135C816.977 515.135 821.072 509.87 821.072 503.825C821.072 497.78 816.977 492.515 804.302 492.515C791.432 492.515 787.337 497.78 787.337 503.825C787.337 509.87 791.432 515.135 804.302 515.135Z" fill="#FF5500"/>
<path d="M750.887 460.34H715.982V536H687.707V460.34H652.802V434.015H750.887V460.34Z" fill="#FF5500"/>
<path d="M610.522 499.535H567.817V536H539.542V434.015H567.817V473.21H610.522V434.015H638.797V536H610.522V499.535Z" fill="#FF5500"/>
<path d="M481.243 537.95C448.678 537.95 431.713 515.72 431.713 485.105C431.713 454.49 448.678 432.065 481.243 432.065C513.808 432.065 530.773 454.49 530.773 485.105C530.773 515.72 513.808 537.95 481.243 537.95ZM481.243 511.625C497.038 511.625 502.498 504.605 502.498 485.105C502.498 465.605 497.038 458.39 481.243 458.39C465.643 458.39 459.988 465.605 459.988 485.105C459.988 504.605 465.643 511.625 481.243 511.625Z" fill="#FF5500"/>
<path d="M471 476H490.61V495.61H471V476Z" fill="#FF5500"/>
<path d="M364.065 484.13H349.44V536H321.165V403.4H349.44V457.61H350.805C384.15 454.88 375.57 403.4 423.15 403.4V431.675C402.285 431.675 405.21 455.855 386.685 469.31L429.39 536H397.02L364.065 484.13Z" fill="#FF5500"/>
<defs>
<linearGradient id="paint0_linear_190_3" x1="628.452" y1="622.342" x2="777.665" y2="1005.49" gradientUnits="userSpaceOnUse">
<stop stop-color="#C2E6E1"/>
<stop offset="0.918269" stop-color="white"/>
</linearGradient>
</defs>
</svg>
