<svg width="1440" height="1757" viewBox="0 0 1440 1757" fill="none" xmlns="http://www.w3.org/2000/svg">
<path d="M-255.84 77.8077C-255.314 73.1942 -254.787 68.5806 -209.645 114.163C-164.502 159.746 -74.7597 255.665 -29.932 317.381C54.6996 433.895 10.9902 485.623 16.8197 542.229C18.2686 556.298 31.4026 569.81 46.5213 581.849C61.6401 593.889 82.2529 604.03 181.254 621.672C280.256 639.315 257.929 620.497 282.221 720.434C323.613 890.724 356.121 943.828 378.307 954.998C426.41 979.216 674.564 895.378 728.622 997.258C757.937 1052.51 1126.33 1051.43 1170.97 1097.07C1246.2 1173.99 1257.59 1349.69 1352.44 1367.3C1730.33 1437.48 1490.54 1652.64 1560.16 1680.2C1587.86 1693.63 1639.43 1526.28 1652.01 1538.95" stroke="url(#paint0_linear_93_1133)" stroke-width="150" stroke-linecap="round"/>
<defs>
<linearGradient id="paint0_linear_93_1133" x1="565.898" y1="858.108" x2="421.286" y2="1243.02" gradientUnits="userSpaceOnUse">
<stop stop-color="#C2E6E1"/>
<stop offset="0.918269" stop-color="white"/>
</linearGradient>
</defs>
</svg>
