<svg width="1440" height="1764" viewBox="0 0 1440 1764" fill="none" xmlns="http://www.w3.org/2000/svg">
<path d="M-65.3983 102.551C-64.1508 98.0781 -62.9033 93.6053 -25.5172 145.739C11.8689 197.872 85.3559 306.748 119.886 374.762C185.077 503.169 133.754 547.354 130.581 604.171C129.792 618.292 140.63 633.707 153.66 647.981C166.69 662.254 185.445 675.52 280.424 708.559C375.402 741.599 546.036 794.011 643.732 826.153C741.427 858.295 761.014 868.579 781.16 883.109C824.84 914.613 853.518 984.901 890.827 1094.03C911.059 1153.22 956.892 1220.83 993.773 1272.94C1055.92 1360.76 1134.91 1428.83 1209.94 1489.47C1280.07 1537.49 1353.81 1579.29 1418.22 1617.48C1443.46 1635.11 1453.57 1649.18 1463.98 1663.67" stroke="url(#paint0_linear_56_697)" stroke-width="200" stroke-linecap="round"/>
<defs>
<linearGradient id="paint0_linear_56_697" x1="622.952" y1="1002.72" x2="419.428" y2="1359.99" gradientUnits="userSpaceOnUse">
<stop stop-color="#C2E6E1"/>
<stop offset="0.918269" stop-color="white"/>
</linearGradient>
</defs>
</svg>
