<svg width="359" height="458" viewBox="0 0 359 458" fill="none" xmlns="http://www.w3.org/2000/svg">
<path d="M136.639 228.216L228.672 318.793L361.836 298.623L337.749 375.664L204.586 395.834L112.552 305.257L136.639 228.216Z" fill="#7DB2AA"/>
<mask id="mask0_27_211" style="mask-type:alpha" maskUnits="userSpaceOnUse" x="112" y="228" width="250" height="168">
<path d="M136.636 228.216L228.669 318.792L361.833 298.623L337.746 375.664L204.583 395.833L112.549 305.257L136.636 228.216Z" fill="#7DB2AA"/>
</mask>
<g mask="url(#mask0_27_211)">
<path d="M238.824 269.409L428.097 294.053L407.802 449.925L196.261 422.381L238.824 269.409Z" fill="#73A69E"/>
</g>
<path d="M296.35 121.065L456.345 275.175L232.377 306.94L74.1023 155.669L296.35 121.065Z" fill="#7DB2AA"/>
<mask id="mask1_27_211" style="mask-type:alpha" maskUnits="userSpaceOnUse" x="74" y="121" width="383" height="186">
<path d="M296.352 121.065L456.347 275.175L232.38 306.939L74.105 155.668L296.352 121.065Z" fill="#7DB2AA"/>
</mask>
<g mask="url(#mask1_27_211)">
<path d="M107.524 178.947L270.393 200.153L269.001 210.845L113.635 190.615L52.8189 247.3L43.9295 244.52L107.524 178.947Z" fill="#73A59E"/>
</g>
<path d="M108.305 173.606L271.173 194.813L269.781 205.505L114.415 185.275L53.5989 241.959L44.7095 239.18L108.305 173.606Z" fill="#599A90"/>
<path d="M41.5947 236.677L58.1239 242.175L53.3425 289.662L16.9783 277.566L41.5947 236.677Z" fill="#477D75"/>
</svg>
