<svg width="1390" height="351" viewBox="0 0 1390 351" fill="none" xmlns="http://www.w3.org/2000/svg">
<path d="M1346.97 317C1295.03 317 1287 280.678 1287 256.834C1287 223.186 1300.82 196 1338.95 196C1376.18 196 1390 221.403 1390 254.383V267.308H1320.44C1322.67 280.455 1329.81 286.917 1350.32 286.917C1355.89 286.917 1366.59 286.917 1382.42 283.797V313.435C1365.03 317 1355.44 317 1346.97 317ZM1319.55 245.692H1357.45C1356.56 231.877 1350.98 226.083 1338.5 226.083C1326.46 226.083 1320.66 232.322 1319.55 245.692Z" fill="#FF5500"/>
<path d="M1217.13 272.193H1199.94V315H1168V199H1199.94V242.25H1216.91L1244.67 199H1283L1243.12 257.333L1283 315H1244.67L1217.13 272.193Z" fill="#FF5500"/>
<rect x="913" y="246.118" width="21" height="20" fill="#FF5500"/>
<path d="M922.5 317C885.352 317 866 291.597 866 256.611C866 221.626 885.352 196 922.5 196C959.648 196 979 221.626 979 256.611C979 291.597 959.648 317 922.5 317ZM922.5 286.917C940.518 286.917 946.746 278.895 946.746 256.611C946.746 234.328 940.518 226.083 922.5 226.083C904.705 226.083 898.254 234.328 898.254 256.611C898.254 278.895 904.705 286.917 922.5 286.917Z" fill="#FF5500"/>
<path d="M801.669 278.403H800.331L778.695 315H741L779.141 257.111L741 199H778.695L800.331 235.597H801.669L821.743 199H861L822.859 257.111L861 315H821.743L801.669 278.403Z" fill="#FF5500"/>
<path d="M650.778 317C623.667 317 611 297.518 611 278.257C611 258.996 623.667 239.514 650.778 239.514C668.111 239.514 676.778 245.049 681.667 252.797V227.338H622.333V199H713.889V284.235H729V314.786H681.667V303.717C676.778 311.465 668.111 317 650.778 317ZM662.556 291.098C677 291.098 681.667 285.12 681.667 278.257C681.667 271.394 677 265.417 662.556 265.417C647.889 265.417 643.222 271.394 643.222 278.257C643.222 285.12 647.889 291.098 662.556 291.098Z" fill="#FF5500"/>
<path d="M560.809 273.524H512.191V315H480V199H512.191V243.581H560.809V199H593V315H560.809V273.524Z" fill="#FF5500"/>
<path d="M327.111 315H272V199H327.111C355.556 199 364.667 212.53 364.667 229.608C364.667 245.134 355.111 253.562 339.556 254.006V257.554C357.778 257.998 368 266.87 368 283.727C368 300.805 358.667 315 327.111 315ZM323.111 228.943H304.222V245.577H323.111C330 245.577 332.444 243.581 332.444 237.371C332.444 231.161 330 228.943 323.111 228.943ZM324.444 267.314H304.222V285.057H324.444C333.111 285.057 335.778 282.396 335.778 276.185C335.778 269.753 333.111 267.314 324.444 267.314Z" fill="#FF5500"/>
<path d="M1114.73 315.392H1035.27V351H1003V284.903C1003 284.903 1016.77 284.903 1018.13 284.903C1019.5 284.903 1035.85 268.88 1037.28 232.382C1038.7 195.884 1037.5 229.044 1037.5 229.044H1010.6V199H1037.5H1128.08V285.348H1147V351H1114.73V315.392ZM1053.74 285.348H1095.81V229.044H1069.77C1069.32 255.75 1066.88 266.654 1053.74 285.348Z" fill="#FF5500"/>
<path d="M888.915 116.193H880.233L849.735 159H811L851.293 101.333L811 43H849.735L880.233 86.2505H888.915V43H921.194V86.2505H930.767L961.488 43H1000L959.707 101.333L1000 159H961.488L930.767 116.193H921.194V159H888.915V116.193Z" fill="#FF5500"/>
<path d="M762.728 158.392H683.272V194H651V127.903C651 127.903 664.77 127.903 666.134 127.903C667.499 127.903 683.853 111.88 685.275 75.3821C686.697 38.8843 685.501 72.0439 685.501 72.0439H658.597V42H685.498H776.082V128.348H795V194H762.728V158.392ZM701.745 128.348H743.81V72.0439H717.77C717.325 98.7496 714.876 109.654 701.745 128.348Z" fill="#FF5500"/>
<path d="M591.972 161C540.026 161 532 124.678 532 100.834C532 67.186 545.823 40 583.946 40C621.177 40 635 65.4033 635 98.3831V111.308H565.442C567.671 124.455 574.805 130.917 595.316 130.917C600.89 130.917 611.591 130.917 627.42 127.797V157.435C610.03 161 600.444 161 591.972 161ZM564.55 89.6925H602.45C601.558 75.8766 595.985 70.0829 583.5 70.0829C571.461 70.0829 565.665 76.3223 564.55 89.6925Z" fill="#FF5500"/>
<path d="M396 159V126.839C419.603 126.839 421.588 110.426 421.809 72.9426H404.765V43H421.809H516V159H484.015V72.9426H453.353C451.588 117.524 442.324 159 396 159Z" fill="#FF5500"/>
<path d="M260 159V126.839C283.603 126.839 285.588 110.426 285.809 72.9426H268.765V43H285.809H380V159H348.015V72.9426H317.353C315.588 117.524 306.324 159 260 159Z" fill="#FF5500"/>
<path d="M177 90H198V111H177V90Z" fill="#FF5500"/>
<path d="M187.5 161C150.352 161 131 135.597 131 100.611C131 65.6262 150.352 40 187.5 40C224.648 40 244 65.6262 244 100.611C244 135.597 224.648 161 187.5 161ZM187.5 130.917C205.518 130.917 211.746 122.895 211.746 100.611C211.746 78.3278 205.518 70.0829 187.5 70.0829C169.705 70.0829 163.254 78.3278 163.254 100.611C163.254 122.895 169.705 130.917 187.5 130.917Z" fill="#FF5500"/>
<path d="M49.1284 116.193H31.9444V159H0V43H31.9444V86.2505H48.908L76.6667 43H115L75.1245 101.333L115 159H76.6667L49.1284 116.193Z" fill="#FF5500"/>
<g filter="url(#filter0_i_12_6)">
<path d="M1016 7C1016 5.89543 1016.9 5 1018 5H1129V157H1018C1016.9 157 1016 156.105 1016 155V7Z" fill="#F1692E" fill-opacity="0.1"/>
</g>
<path d="M1221.96 158.665H1186.4L1131.07 45.1104H1129.51C1129.51 49.3325 1129.51 53.9251 1129.51 59.5547C1129.51 65.0361 1129.21 70.5176 1129.51 75.999C1129.81 81.4804 1129.51 86.2952 1129.51 90.4434L1129.51 161.332L1039.11 185.331V26.666L1138.84 0L1193.73 112.888H1195.73C1195.44 109.184 1195.07 104.813 1194.62 99.7764C1194.18 94.5913 1193.81 89.3322 1193.51 83.999C1193.21 78.5176 1193.07 73.5547 1193.07 69.1104V0H1221.96V158.665ZM1306.4 158.665H1237.07V138.221H1306.4V158.665ZM1271.96 49.999C1278.92 49.9991 1285.14 51.555 1290.62 54.666C1296.25 57.6289 1300.62 62.0732 1303.73 67.999C1306.99 73.7767 1308.62 80.8878 1308.62 89.332C1308.62 101.924 1305.29 111.702 1298.62 118.665C1291.95 125.48 1282.92 128.888 1271.51 128.888C1264.4 128.888 1258.1 127.332 1252.62 124.221C1247.14 121.11 1242.77 116.665 1239.51 110.888C1236.4 104.962 1234.84 97.7764 1234.84 89.332C1234.84 76.7398 1238.18 67.0364 1244.84 60.2217C1251.51 53.4069 1260.55 49.999 1271.96 49.999ZM1271.73 67.7773C1266.55 67.7774 1262.77 69.5549 1260.4 73.1104C1258.03 76.6658 1256.84 82.073 1256.84 89.332C1256.84 96.5911 1258.03 102.073 1260.4 105.776C1262.77 109.332 1266.55 111.11 1271.73 111.11C1276.92 111.11 1280.62 109.332 1282.84 105.776C1285.21 102.073 1286.4 96.5911 1286.4 89.332C1286.4 82.0731 1285.21 76.6658 1282.84 73.1104C1280.62 69.5548 1276.92 67.7773 1271.73 67.7773Z" fill="#FF5500"/>
<g filter="url(#filter1_d_12_6)">
<path d="M1055.56 117.332L1066.32 116.942L1065.52 121.295L1054.22 122.221L1055.56 117.332Z" fill="#E6DFD1"/>
<path d="M1068.99 116.888L1069.19 126.663L1065.18 126.58L1062.77 117.014L1068.99 116.888Z" fill="#E6DFD1"/>
</g>
<path d="M1324.62 7H1389.62V159H1357.34V37.1765H1324.62V7Z" fill="#FF5500"/>
<defs>
<filter id="filter0_i_12_6" x="1016" y="2" width="113" height="155" filterUnits="userSpaceOnUse" color-interpolation-filters="sRGB">
<feFlood flood-opacity="0" result="BackgroundImageFix"/>
<feBlend mode="normal" in="SourceGraphic" in2="BackgroundImageFix" result="shape"/>
<feColorMatrix in="SourceAlpha" type="matrix" values="0 0 0 0 0 0 0 0 0 0 0 0 0 0 0 0 0 0 127 0" result="hardAlpha"/>
<feOffset dy="-3"/>
<feGaussianBlur stdDeviation="10"/>
<feComposite in2="hardAlpha" operator="arithmetic" k2="-1" k3="1"/>
<feColorMatrix type="matrix" values="0 0 0 0 1 0 0 0 0 0.333333 0 0 0 0 0 0 0 0 0.46 0"/>
<feBlend mode="normal" in2="shape" result="effect1_innerShadow_12_6"/>
</filter>
<filter id="filter1_d_12_6" x="1052.32" y="115.988" width="18.7663" height="13.5756" filterUnits="userSpaceOnUse" color-interpolation-filters="sRGB">
<feFlood flood-opacity="0" result="BackgroundImageFix"/>
<feColorMatrix in="SourceAlpha" type="matrix" values="0 0 0 0 0 0 0 0 0 0 0 0 0 0 0 0 0 0 127 0" result="hardAlpha"/>
<feOffset dy="1"/>
<feGaussianBlur stdDeviation="0.95"/>
<feComposite in2="hardAlpha" operator="out"/>
<feColorMatrix type="matrix" values="0 0 0 0 0 0 0 0 0 0 0 0 0 0 0 0 0 0 0.07 0"/>
<feBlend mode="normal" in2="BackgroundImageFix" result="effect1_dropShadow_12_6"/>
<feBlend mode="normal" in="SourceGraphic" in2="effect1_dropShadow_12_6" result="shape"/>
</filter>
</defs>
</svg>
