<svg width="1201" height="319" viewBox="0 0 1201 319" fill="none" xmlns="http://www.w3.org/2000/svg">
<path d="M1154.57 132.6C1126.37 132.6 1113.67 114.484 1109.94 94.5007H1090.51V130.732H1063.43V33.0566H1090.51V69.2881H1109.94C1113.67 49.3047 1126.37 31.189 1154.57 31.189C1188.56 31.189 1200.33 57.3354 1200.33 81.9878C1200.33 106.453 1188.56 132.6 1154.57 132.6ZM1154.57 107.387C1169.7 107.387 1173.25 96.3684 1173.25 81.9878C1173.25 67.4205 1169.7 56.4016 1154.57 56.4016C1139.44 56.4016 1136.08 67.4205 1136.08 81.9878C1136.08 96.3684 1139.44 107.387 1154.57 107.387Z" fill="#FF5500"/>
<path d="M1007.6 132.6C976.408 132.6 960.16 111.309 960.16 81.9878C960.16 52.6664 976.408 31.189 1007.6 31.189C1038.79 31.189 1055.03 52.6664 1055.03 81.9878C1055.03 111.309 1038.79 132.6 1007.6 132.6ZM1007.6 107.387C1022.72 107.387 1027.95 100.664 1027.95 81.9878C1027.95 63.3118 1022.72 56.4016 1007.6 56.4016C992.657 56.4016 987.24 63.3118 987.24 81.9878C987.24 100.664 992.657 107.387 1007.6 107.387Z" fill="#FF5500"/>
<path d="M998.541 71.9027H1018.15V91.5126H998.541V71.9027Z" fill="#FF5500"/>
<path d="M913.687 130.732H867.371V33.0566H913.687C937.592 33.0566 945.25 44.449 945.25 58.8295C945.25 71.9027 937.219 78.9996 924.146 79.3732V82.3613C939.46 82.7348 948.051 90.2053 948.051 104.399C948.051 118.78 940.207 130.732 913.687 130.732ZM910.326 58.2692H894.451V72.2763H910.326C916.115 72.2763 918.169 70.5954 918.169 65.3661C918.169 60.1368 916.115 58.2692 910.326 58.2692ZM911.446 90.5788H894.451V105.52H911.446C918.73 105.52 920.971 103.278 920.971 98.0492C920.971 92.6332 918.73 90.5788 911.446 90.5788Z" fill="#FF5500"/>
<path d="M806.016 132.6C775.013 132.6 760.633 111.309 760.633 81.9878C760.633 52.6664 775.013 31.189 806.016 31.189C835.337 31.189 849.718 51.9194 849.718 74.1439H822.637C821.89 64.0588 819.462 56.4016 806.202 56.4016C790.328 56.4016 787.713 66.1132 787.713 81.9878C787.713 97.8624 790.328 107.387 806.202 107.387C819.462 107.387 821.89 99.73 822.637 89.645H849.718C849.718 111.869 835.337 132.6 806.016 132.6Z" fill="#FF5500"/>
<path d="M643.899 79.5599H640.911L603.185 130.732H576.105V33.0566H603.185V84.2289H606.173L643.899 33.0566H670.979V130.732H643.899V79.5599Z" fill="#FF5500"/>
<path d="M519.238 31.189C547.438 31.189 560.885 54.534 560.885 81.9878C560.885 109.442 547.438 132.6 519.238 132.6C508.406 132.6 498.881 128.865 492.157 118.78V160.614H465.077V33.0566H492.157V45.0092C498.881 34.9242 508.406 31.189 519.238 31.189ZM513.075 107.387C527.082 107.387 533.805 99.3565 533.805 81.9878C533.805 64.4323 527.082 56.4016 513.075 56.4016C498.881 56.4016 492.157 64.4323 492.157 81.9878C492.157 99.3565 498.881 107.387 513.075 107.387Z" fill="#FF5500"/>
<path d="M411.817 132.6C368.301 132.6 361.578 102.158 361.578 82.1746C361.578 53.9737 373.157 31.189 405.093 31.189C436.282 31.189 447.861 52.4797 447.861 80.1202V90.9523H389.592C391.46 101.971 397.436 107.387 414.618 107.387C419.287 107.387 428.252 107.387 441.512 104.773V129.612C426.944 132.6 418.914 132.6 411.817 132.6ZM388.845 72.8365H420.594C419.847 61.2574 415.178 56.4016 404.72 56.4016C394.635 56.4016 389.779 61.6309 388.845 72.8365Z" fill="#FF5500"/>
<path d="M303.156 132.6C263.749 132.6 253.104 105.706 253.104 81.6143V53.6002C253.104 28.2008 262.629 3.73522 304.837 3.73522C315.669 3.73522 322.766 3.73522 333.598 0V24.8391C325.194 28.9479 316.042 28.9479 304.837 28.9479C282.052 28.9479 280.371 37.3521 280.184 51.9194C284.48 47.0636 293.631 41.0873 305.957 41.0873C331.357 41.0873 347.605 59.3898 347.605 86.0966C347.605 112.803 331.357 132.6 303.156 132.6ZM300.354 107.387C315.108 107.387 320.525 100.104 320.525 86.8436C320.525 73.5836 315.108 66.2999 300.354 66.2999C285.6 66.2999 280.184 73.5836 280.184 86.2833C280.184 98.7963 285.6 107.387 300.354 107.387Z" fill="#FF5500"/>
<path d="M160.28 130.732H113.216V33.0566H140.297V62.5647H160.28C186.8 62.5647 195.764 77.8791 195.764 96.7419C195.764 115.418 186.8 130.732 160.28 130.732ZM208.277 33.0566H235.358V130.732H208.277V33.0566ZM157.292 87.7774H140.297V105.52H157.292C165.696 105.52 168.684 104.026 168.684 96.7419C168.684 89.2715 165.696 87.7774 157.292 87.7774Z" fill="#FF5500"/>
<path d="M50.7988 130.732H0V3.73517H50.7988C80.1202 3.73517 90.7656 17.7422 90.7656 34.5506C90.7656 47.9974 83.1084 60.6971 64.4323 61.4441V64.4323C86.2833 65.1793 94.5008 76.9452 94.5008 93.7537C94.5008 113.364 85.5363 130.732 50.7988 130.732ZM49.3048 28.9478H27.0803V50.7988H49.3048C59.2031 50.7988 63.6853 48.9312 63.6853 39.5932C63.6853 30.8154 59.2031 28.9478 49.3048 28.9478ZM50.7988 76.0114H27.0803V102.718H50.7988C62.0045 102.718 67.4205 100.851 67.4205 89.645C67.4205 77.8791 62.0045 76.0114 50.7988 76.0114Z" fill="#FF5500"/>
<path d="M1164.56 151.002H1193.56V251.002H1164.56V151.002ZM1164.56 267.002H1193.56V287.002H1164.56V267.002Z" fill="#FF5500"/>
<path d="M1111.63 151.002H1140.63V251.002H1111.63V151.002ZM1111.63 267.002H1140.63V287.002H1111.63V267.002Z" fill="#FF5500"/>
<path d="M1058.7 151.002H1087.7V251.002H1058.7V151.002ZM1058.7 267.002H1087.7V287.002H1058.7V267.002Z" fill="#FF5500"/>
<path d="M1005.77 151.002H1034.77V251.002H1005.77V151.002ZM1005.77 267.002H1034.77V287.002H1005.77V267.002Z" fill="#FF5500"/>
<path d="M950.834 182.402H979.834V319.002H891.834V292.002H950.834V267.402C944.834 274.002 935.034 278.002 923.034 278.002C891.234 278.002 878.234 260.402 878.234 232.002V182.402H907.234V230.402C907.234 244.402 914.434 251.002 929.034 251.002C943.634 251.002 950.834 244.402 950.834 230.402V182.402Z" fill="#FF5500"/>
<path d="M809.15 254.002H807.95L788.55 287.002H754.75L788.95 234.802L754.75 182.402H788.55L807.95 215.402H809.15L827.15 182.402H862.35L828.15 234.802L862.35 287.002H827.15L809.15 254.002Z" fill="#FF5500"/>
<path d="M703.764 182.402H732.764V319.002H644.764V292.002H703.764V267.402C697.764 274.002 687.964 278.002 675.964 278.002C644.164 278.002 631.164 260.402 631.164 232.002V182.402H660.164V230.402C660.164 244.402 667.364 251.002 681.964 251.002C696.564 251.002 703.764 244.402 703.764 230.402V182.402Z" fill="#FF5500"/>
<path d="M586.703 260.002H616.703V319.002H587.703V287.002H483.703V182.402H512.703V260.002H557.703V182.402H586.703V260.002Z" fill="#FF5500"/>
<path d="M426.714 289.002C380.114 289.002 372.914 256.402 372.914 235.002C372.914 204.802 385.314 180.402 419.514 180.402C452.914 180.402 465.314 203.202 465.314 232.802V244.402H402.914C404.914 256.202 411.314 262.002 429.714 262.002C434.714 262.002 444.314 262.002 458.514 259.202V285.802C442.914 289.002 434.314 289.002 426.714 289.002ZM402.114 225.002H436.114C435.314 212.602 430.314 207.402 419.114 207.402C408.314 207.402 403.114 213.002 402.114 225.002Z" fill="#FF5500"/>
<path d="M328.905 209.402H279.305V287.002H250.305V182.402H357.905V287.002H328.905V209.402Z" fill="#FF5500"/>
<path d="M184.6 289.002C151.4 289.002 136 266.202 136 234.802C136 203.402 151.4 180.402 184.6 180.402C216 180.402 231.4 202.602 231.4 226.402H202.4C201.6 215.602 199 207.402 184.8 207.402C167.8 207.402 165 217.802 165 234.802C165 251.802 167.8 262.002 184.8 262.002C199 262.002 201.6 253.802 202.4 243.002H231.4C231.4 266.802 216 289.002 184.6 289.002Z" fill="#FF5500"/>
</svg>
