<svg width="32" height="32" viewBox="0 0 32 32" fill="none" xmlns="http://www.w3.org/2000/svg">
<mask id="path-1-inside-1_56_723" fill="white">
<path d="M14.291 3.09033C22.184 3.09033 28.583 9.48936 28.583 17.3823C28.5828 25.2751 22.1838 31.6733 14.291 31.6733C6.39843 31.6731 0.000237971 25.2749 0 17.3823C0 9.48953 6.39828 3.09059 14.291 3.09033ZM14.292 7.42139C8.79094 7.42139 4.33121 11.8803 4.33105 17.3813C4.33105 22.8825 8.79084 27.3423 14.292 27.3423C19.7929 27.3421 24.252 22.8824 24.252 17.3813C24.2518 11.8805 19.7929 7.42162 14.292 7.42139Z"/>
</mask>
<g filter="url(#filter0_i_56_723)">
<path d="M14.291 3.09033C22.184 3.09033 28.583 9.48936 28.583 17.3823C28.5828 25.2751 22.1838 31.6733 14.291 31.6733C6.39843 31.6731 0.000237971 25.2749 0 17.3823C0 9.48953 6.39828 3.09059 14.291 3.09033ZM14.292 7.42139C8.79094 7.42139 4.33121 11.8803 4.33105 17.3813C4.33105 22.8825 8.79084 27.3423 14.292 27.3423C19.7929 27.3421 24.252 22.8824 24.252 17.3813C24.2518 11.8805 19.7929 7.42162 14.292 7.42139Z" fill="url(#paint0_linear_56_723)"/>
</g>
<path d="M14.291 3.09033V2.79033H14.291L14.291 3.09033ZM28.583 17.3823L28.883 17.3823V17.3823H28.583ZM14.291 31.6733L14.291 31.9733H14.291V31.6733ZM0 17.3823H-0.3V17.3823L0 17.3823ZM14.292 7.42139L14.292 7.12139H14.292V7.42139ZM4.33105 17.3813L4.03105 17.3813V17.3813H4.33105ZM14.292 27.3423V27.6423H14.292L14.292 27.3423ZM24.252 17.3813H24.552V17.3813L24.252 17.3813ZM14.291 3.09033V3.39033C22.0183 3.39033 28.283 9.65505 28.283 17.3823H28.583H28.883C28.883 9.32368 22.3497 2.79033 14.291 2.79033V3.09033ZM28.583 17.3823L28.283 17.3823C28.2828 25.1094 22.0182 31.3733 14.291 31.3733V31.6733V31.9733C22.3495 31.9733 28.8828 25.4408 28.883 17.3823L28.583 17.3823ZM14.291 31.6733L14.291 31.3733C6.56411 31.3731 0.300233 25.1092 0.3 17.3823L0 17.3823L-0.3 17.3823C-0.299757 25.4406 6.23274 31.9731 14.291 31.9733L14.291 31.6733ZM0 17.3823H0.3C0.3 9.6552 6.56398 3.39059 14.291 3.39033L14.291 3.09033L14.291 2.79033C6.23257 2.7906 -0.3 9.32386 -0.3 17.3823H0ZM14.292 7.42139V7.12139C8.62528 7.12139 4.03122 11.7146 4.03105 17.3813L4.33105 17.3813L4.63105 17.3814C4.63121 12.046 8.95659 7.72139 14.292 7.72139V7.42139ZM4.33105 17.3813H4.03105C4.03105 23.0482 8.62515 27.6423 14.292 27.6423V27.3423V27.0423C8.95652 27.0423 4.63105 22.7168 4.63105 17.3813H4.33105ZM14.292 27.3423L14.292 27.6423C19.9587 27.642 24.552 23.048 24.552 17.3813H24.252H23.952C23.952 22.7167 19.6272 27.0421 14.292 27.0423L14.292 27.3423ZM24.252 17.3813L24.552 17.3813C24.5518 11.7148 19.9585 7.12163 14.292 7.12139L14.292 7.42139L14.292 7.72139C19.6272 7.72161 23.9518 12.0462 23.952 17.3814L24.252 17.3813Z" fill="url(#paint1_linear_56_723)" mask="url(#path-1-inside-1_56_723)"/>
<g filter="url(#filter1_i_56_723)">
<circle cx="28.5832" cy="3.09005" r="3.09005" fill="url(#paint2_linear_56_723)"/>
</g>
<circle cx="28.5832" cy="3.09005" r="2.94005" stroke="url(#paint3_linear_56_723)" stroke-width="0.3"/>
<defs>
<filter id="filter0_i_56_723" x="0" y="3.09033" width="28.583" height="29.583" filterUnits="userSpaceOnUse" color-interpolation-filters="sRGB">
<feFlood flood-opacity="0" result="BackgroundImageFix"/>
<feBlend mode="normal" in="SourceGraphic" in2="BackgroundImageFix" result="shape"/>
<feColorMatrix in="SourceAlpha" type="matrix" values="0 0 0 0 0 0 0 0 0 0 0 0 0 0 0 0 0 0 127 0" result="hardAlpha"/>
<feOffset dy="1"/>
<feGaussianBlur stdDeviation="1.15"/>
<feComposite in2="hardAlpha" operator="arithmetic" k2="-1" k3="1"/>
<feColorMatrix type="matrix" values="0 0 0 0 1 0 0 0 0 1 0 0 0 0 1 0 0 0 1 0"/>
<feBlend mode="normal" in2="shape" result="effect1_innerShadow_56_723"/>
</filter>
<filter id="filter1_i_56_723" x="25.4932" y="0" width="6.18005" height="7.18018" filterUnits="userSpaceOnUse" color-interpolation-filters="sRGB">
<feFlood flood-opacity="0" result="BackgroundImageFix"/>
<feBlend mode="normal" in="SourceGraphic" in2="BackgroundImageFix" result="shape"/>
<feColorMatrix in="SourceAlpha" type="matrix" values="0 0 0 0 0 0 0 0 0 0 0 0 0 0 0 0 0 0 127 0" result="hardAlpha"/>
<feOffset dy="1"/>
<feGaussianBlur stdDeviation="1.15"/>
<feComposite in2="hardAlpha" operator="arithmetic" k2="-1" k3="1"/>
<feColorMatrix type="matrix" values="0 0 0 0 1 0 0 0 0 1 0 0 0 0 1 0 0 0 1 0"/>
<feBlend mode="normal" in2="shape" result="effect1_innerShadow_56_723"/>
</filter>
<linearGradient id="paint0_linear_56_723" x1="27.4242" y1="1.15905" x2="13.519" y2="34.3771" gradientUnits="userSpaceOnUse">
<stop stop-color="white"/>
<stop offset="1" stop-color="white" stop-opacity="0.5"/>
</linearGradient>
<linearGradient id="paint1_linear_56_723" x1="22.4028" y1="5.79412" x2="5.02133" y2="30.1282" gradientUnits="userSpaceOnUse">
<stop stop-color="white" stop-opacity="0"/>
<stop offset="1" stop-color="white"/>
</linearGradient>
<linearGradient id="paint2_linear_56_723" x1="28.197" y1="3.09005" x2="28.9695" y2="6.95261" gradientUnits="userSpaceOnUse">
<stop stop-color="white"/>
<stop offset="1" stop-color="white" stop-opacity="0.55"/>
</linearGradient>
<linearGradient id="paint3_linear_56_723" x1="31.6733" y1="5.43951" x2="25.4932" y2="0.740581" gradientUnits="userSpaceOnUse">
<stop stop-color="white"/>
<stop offset="1" stop-color="white" stop-opacity="0"/>
</linearGradient>
</defs>
</svg>
