<svg width="406" height="455" viewBox="0 0 406 455" fill="none" xmlns="http://www.w3.org/2000/svg">
<path d="M22.2637 325.835C13.4235 318.527 15.7245 304.403 26.4275 300.279L225.765 223.455C230.901 221.476 236.708 222.468 240.895 226.04L345.417 315.218C353.961 322.507 351.758 336.255 341.364 340.51L148.132 419.622C143.013 421.718 137.155 420.825 132.891 417.3L22.2637 325.835Z" fill="#1A1A1A"/>
<path d="M22.2637 325.835C13.4235 318.527 15.7245 304.403 26.4275 300.279L225.765 223.455C230.901 221.476 236.708 222.468 240.895 226.04L345.417 315.218C353.961 322.507 351.758 336.255 341.364 340.51L148.132 419.622C143.013 421.718 137.155 420.825 132.891 417.3L22.2637 325.835Z" fill="#3C3C3C"/>
<mask id="mask0_39_321" style="mask-type:alpha" maskUnits="userSpaceOnUse" x="16" y="222" width="335" height="199">
<path d="M22.2637 325.835C13.4235 318.527 15.7245 304.403 26.4275 300.279L225.765 223.455C230.901 221.476 236.708 222.468 240.895 226.04L345.417 315.218C353.961 322.507 351.758 336.255 341.364 340.51L148.132 419.622C143.013 421.718 137.155 420.825 132.891 417.3L22.2637 325.835Z" fill="#1A1A1A"/>
</mask>
<g mask="url(#mask0_39_321)">
<path d="M36.1113 294.288L21.7435 302.46C18.2946 304.421 16.3381 308.242 16.7623 312.187C16.7901 312.446 16.9182 312.684 17.119 312.849L130.429 406.297C137.455 412.091 147.075 413.606 155.542 410.252L348.336 333.881C351.997 332.431 354.466 328.968 354.643 325.034L354.972 317.727C367.318 327.105 365.59 346.169 351.761 353.176L123.743 468.699L-16.3784 305.771L36.1113 294.288Z" fill="#2D2D2D"/>
</g>
<g filter="url(#filter0_i_39_321)">
<path d="M181.443 368.644C172.001 361.746 173.733 347.176 184.529 342.683L227.191 324.931C232.145 322.87 237.822 323.611 242.08 326.876L253.392 335.549C262.677 342.667 260.601 357.201 249.695 361.436L206.337 378.271C201.57 380.122 196.188 379.417 192.059 376.4L181.443 368.644Z" fill="#252525" fill-opacity="0.5"/>
</g>
<path d="M63.6473 327.351C57.5619 322.529 59.0548 312.913 66.316 310.163L234.365 246.507C237.757 245.222 241.58 245.875 244.353 248.213L281.953 279.917C287.681 284.746 286.26 293.926 279.341 296.798L117.927 363.805C114.573 365.198 110.728 364.662 107.881 362.407L63.6473 327.351Z" fill="#252525" fill-opacity="0.5"/>
<path d="M16.8423 136.276C17.4421 130.83 20.963 126.145 26.0268 124.054L225.41 41.7182C235.886 37.3921 247.191 45.8009 246.061 57.0785L231.81 199.266C231.256 204.794 227.692 209.563 222.546 211.66L21.8095 293.477C11.2818 297.768 -0.00650892 289.245 1.23816 277.944L16.8423 136.276Z" fill="#3C3C3C"/>
<mask id="mask1_39_321" style="mask-type:alpha" maskUnits="userSpaceOnUse" x="1" y="40" width="246" height="255">
<path d="M16.8423 136.276C17.4421 130.83 20.963 126.145 26.0268 124.054L225.41 41.7182C235.886 37.3921 247.191 45.8009 246.061 57.0785L231.81 199.266C231.256 204.794 227.692 209.563 222.546 211.66L21.8095 293.477C11.2818 297.768 -0.00650892 289.245 1.23816 277.944L16.8423 136.276Z" fill="#171717"/>
</mask>
<g mask="url(#mask1_39_321)">
<path d="M14.2728 117.761L125.464 83.0523L38.6593 123.912C30.7942 127.614 25.4169 135.136 24.4589 143.776L17.2828 208.493L8.49961 276.102C7.60206 283.011 13.8677 288.697 20.6574 287.136L63.7623 277.223L-3.77703 306.183L14.2728 117.761Z" fill="#2D2D2D"/>
</g>
<path d="M45.5643 139.769C45.7642 137.955 46.9364 136.395 48.6227 135.697L218.195 65.5396C221.687 64.0946 225.459 66.898 225.081 70.6588L212.416 196.929C212.231 198.77 211.045 200.359 209.331 201.058L38.5547 270.796C35.045 272.229 31.2793 269.388 31.6946 265.619L45.5643 139.769Z" fill="#6DC7FF" fill-opacity="0.78"/>
<defs>
<filter id="filter0_i_39_321" x="175.29" y="323.78" width="83.9785" height="57.5082" filterUnits="userSpaceOnUse" color-interpolation-filters="sRGB">
<feFlood flood-opacity="0" result="BackgroundImageFix"/>
<feBlend mode="normal" in="SourceGraphic" in2="BackgroundImageFix" result="shape"/>
<feColorMatrix in="SourceAlpha" type="matrix" values="0 0 0 0 0 0 0 0 0 0 0 0 0 0 0 0 0 0 127 0" result="hardAlpha"/>
<feOffset dy="2"/>
<feGaussianBlur stdDeviation="2"/>
<feComposite in2="hardAlpha" operator="arithmetic" k2="-1" k3="1"/>
<feColorMatrix type="matrix" values="0 0 0 0 0 0 0 0 0 0 0 0 0 0 0 0 0 0 0.25 0"/>
<feBlend mode="normal" in2="shape" result="effect1_innerShadow_39_321"/>
</filter>
</defs>
</svg>
