<svg width="225" height="177" viewBox="0 0 225 177" fill="none" xmlns="http://www.w3.org/2000/svg">
<path d="M32.3445 42.5544L56.8564 28.8735L79.7368 27.5699L82.3238 23.4313L81.4426 18.9581L83.9458 15.6891L88.0717 18.2811L92.2957 24.3931L94.5757 32.5117L110.57 39.0877L119.336 57.0885L118.325 58.4984L99.578 57.7742L69.1967 46.109L38.1499 51.8492L32.3445 42.5544Z" fill="#C2E6E1"/>
<path d="M13.4003 51.9542L26.0589 46.2122L30.1247 53.8363L42.3212 68.158L23.2745 70.4701L23.1513 55.8272L3.24255 58.4555L4.92899 54.5819L13.4003 51.9542Z" fill="#C2E6E1"/>
<mask id="mask0_27_228" style="mask-type:alpha" maskUnits="userSpaceOnUse" x="32" y="15" width="88" height="44">
<path d="M32.1252 42.5333L56.7014 28.8586L79.645 27.5611L82.2381 23.423L81.3532 18.9495L83.8626 15.681L88.0006 18.2743L92.2379 24.3876L94.5265 32.507L110.567 39.0874L119.362 57.091L118.348 58.5007L99.5493 57.7714L69.0806 46.0978L37.9493 51.8298L32.1252 42.5333Z" fill="#C2E6E1"/>
</mask>
<g mask="url(#mask0_27_228)">
<path d="M87.4078 7.07352L75.3952 7.49927L56.2376 28.1784L32.4208 42.518L57.5281 30.4227L79.9065 27.558L84.1866 24.8464L83.2696 18.7301L87.4078 7.07352Z" fill="#B3E0D9"/>
<path d="M37.0495 50.0472L69.316 43.6153L96.3541 54.9359L117.322 56.2828L121.239 57.3362L121.736 57.3842L115.074 63.6009L69.0197 46.6873L38.3505 52.182L37.0495 50.0472Z" fill="#B3E0D9"/>
<rect x="114.608" y="47.4816" width="13.7193" height="1.20694" transform="rotate(57.7249 114.608 47.4816)" fill="#B3E0D9"/>
<path d="M111.96 49.5037L113.449 44.3559L114.702 46.9884L116.453 49.6688L115.505 49.0751L114.51 48.9791L112.118 51.0012L111.96 49.5037Z" fill="white"/>
<path d="M110.38 39.0367L114.6 44.0971L113.579 44.9486L110.301 40.536L108.053 37.8076L110.38 39.0367Z" fill="#B3E0D9"/>
</g>
<mask id="mask1_27_228" style="mask-type:alpha" maskUnits="userSpaceOnUse" x="3" y="46" width="40" height="25">
<path d="M13.4003 51.9542L26.0589 46.2122L30.1247 53.8363L42.3212 68.158L23.2745 70.4701L23.1513 55.8272L3.24255 58.4555L4.92899 54.5819L13.4003 51.9542Z" fill="#C2E6E1"/>
</mask>
<g mask="url(#mask1_27_228)">
<path d="M-5.53967 43.718L28.723 38.193L25.531 48.6017L22.7241 56.8704L-2.65242 61.6231L-5.53967 43.718Z" fill="#B3E0D9"/>
</g>
<path d="M26.9424 87.0458L80.751 73.0816L103.421 89.8801L124.796 79.731L156.296 87.0458L201.088 85.4207L220.3 128.93L157.84 119.19L125.02 111.47L99.23 123.69L75.67 107.29L31 119L26.9424 87.0458Z" fill="#C2E6E1" fill-opacity="0.8"/>
<path d="M59.17 88.5349H43.825V103H35.85V65.5999H43.825V81.1099H59.17V65.5999H67.145V103H59.17V88.5349Z" fill="#7DB2AA"/>
<path d="M97.3726 73.1349H81.4226V103H73.4476V65.5999H97.3726V73.1349Z" fill="#7DB2AA"/>
<path d="M126.806 73.1349H110.856V103H102.881V65.5999H126.806V73.1349Z" fill="#7DB2AA"/>
<path d="M158.33 73.0249H139.74V103H131.765V65.5999H166.305V103H158.33V73.0249Z" fill="#7DB2AA"/>
<path d="M184.161 88.3699H180.036V103H172.061V65.5999H180.036V80.8899H180.421C189.826 80.1199 187.406 65.5999 200.826 65.5999V73.5749C194.941 73.5749 195.766 80.3949 190.541 84.1899L202.586 103H193.456L184.161 88.3699Z" fill="#7DB2AA"/>
<path d="M31.0133 119L58.0133 112L75.6833 107.29L99.2433 123.69L125.033 111.47L157.853 119.19L220.313 128.93L212.393 111L144.614 89.2143L115.388 94.1881L97.1409 82.4999L72.553 94.375L56.9334 89.2143L27.8732 94.375L31.0133 119Z" fill="#B3E0D9" fill-opacity="0.9"/>
<path d="M28.85 102L79.2401 88.1627L102.763 104.794L125.167 94.4435L157.991 101.499L207.49 99.9321L220.296 128.932L157.839 119.193L125.021 111.472L99.233 123.693L75.6671 107.291L31 119L28.85 102Z" fill="#C2E6E1" fill-opacity="0.95"/>
</svg>
