<svg width="221" height="164" viewBox="0 0 221 164" fill="none" xmlns="http://www.w3.org/2000/svg">
<path d="M32.3445 42.5544L56.8564 28.8735L79.7368 27.5699L82.3238 23.4313L81.4426 18.9581L83.9458 15.6891L88.0717 18.2811L92.2957 24.3931L94.5757 32.5117L110.57 39.0877L119.336 57.0885L118.325 58.4984L99.578 57.7742L69.1967 46.109L38.1499 51.8492L32.3445 42.5544Z" fill="#C2E6E1"/>
<path d="M13.4003 51.9542L26.0589 46.2122L30.1247 53.8363L42.3212 68.158L23.2745 70.4701L23.1513 55.8272L3.24255 58.4555L4.92899 54.5819L13.4003 51.9542Z" fill="#C2E6E1"/>
<mask id="mask0_27_228" style="mask-type:alpha" maskUnits="userSpaceOnUse" x="32" y="15" width="88" height="44">
<path d="M32.1252 42.5333L56.7014 28.8586L79.645 27.5611L82.2381 23.423L81.3532 18.9495L83.8626 15.681L88.0006 18.2743L92.2379 24.3876L94.5265 32.507L110.567 39.0874L119.362 57.091L118.348 58.5007L99.5493 57.7714L69.0806 46.0978L37.9493 51.8298L32.1252 42.5333Z" fill="#C2E6E1"/>
</mask>
<g mask="url(#mask0_27_228)">
<path d="M87.4078 7.07352L75.3952 7.49927L56.2376 28.1784L32.4208 42.518L57.5281 30.4227L79.9065 27.558L84.1866 24.8464L83.2696 18.7301L87.4078 7.07352Z" fill="#B3E0D9"/>
<path d="M37.0495 50.0472L69.316 43.6153L96.3541 54.9359L117.322 56.2828L121.239 57.3362L121.736 57.3842L115.074 63.6009L69.0197 46.6873L38.3505 52.182L37.0495 50.0472Z" fill="#B3E0D9"/>
<rect x="114.608" y="47.4816" width="13.7193" height="1.20694" transform="rotate(57.7249 114.608 47.4816)" fill="#B3E0D9"/>
<path d="M111.96 49.5037L113.449 44.3559L114.702 46.9884L116.453 49.6688L115.505 49.0751L114.51 48.9791L112.118 51.0012L111.96 49.5037Z" fill="white"/>
<path d="M110.38 39.0367L114.6 44.0971L113.579 44.9486L110.301 40.536L108.053 37.8076L110.38 39.0367Z" fill="#B3E0D9"/>
</g>
<mask id="mask1_27_228" style="mask-type:alpha" maskUnits="userSpaceOnUse" x="3" y="46" width="40" height="25">
<path d="M13.4003 51.9542L26.0589 46.2122L30.1247 53.8363L42.3212 68.158L23.2745 70.4701L23.1513 55.8272L3.24255 58.4555L4.92899 54.5819L13.4003 51.9542Z" fill="#C2E6E1"/>
</mask>
<g mask="url(#mask1_27_228)">
<path d="M-5.53967 43.718L28.723 38.193L25.531 48.6017L22.7241 56.8704L-2.65242 61.6231L-5.53967 43.718Z" fill="#B3E0D9"/>
</g>
<path d="M26.9425 87.0458L80.751 73.0816L103.421 89.8801L124.797 79.731L156.297 87.0458L201.088 85.4207L214.443 115.57L156.297 104.71L124.797 96.731L100.195 108.719L77.4861 92.1492L30.4025 104.71L26.9425 87.0458Z" fill="#C2E6E1" fill-opacity="0.8"/>
<path d="M59.17 88.535H43.825V103H35.85V65.6H43.825V81.11H59.17V65.6H67.145V103H59.17V88.535ZM97.3727 73.135H81.4227V103H73.4477V65.6H97.3727V73.135ZM126.806 73.135H110.856V103H102.881V65.6H126.806V73.135ZM158.33 73.025H139.74V103H131.765V65.6H166.305V103H158.33V73.025ZM184.161 88.37H180.036V103H172.061V65.6H180.036V80.89H180.421C189.826 80.12 187.406 65.6 200.826 65.6V73.575C194.941 73.575 195.766 80.395 190.541 84.19L202.586 103H193.456L184.161 88.37Z" fill="#7DB2AA"/>
<path d="M31.2075 107.654L53.0088 100.877L73.2075 103.154L95.4166 105.654L113.021 111.069L142.151 106.748L181.207 119.654L190.08 103.83L144.68 89.368L115.455 94.3417L97.2075 82.6535L72.6195 94.5286L57 89.368L28.7074 94.3417L31.2075 107.654Z" fill="#B3E0D9" fill-opacity="0.9"/>
<path d="M29.7965 101.499L79.2402 88.1627L102.763 104.794L125.167 94.4435L157.991 101.499L207.297 99.9321L220.297 128.932L157.839 119.193L125.021 111.472L99.2331 123.693L75.6672 107.291L32.7965 118.432L29.7965 101.499Z" fill="#C2E6E1" fill-opacity="0.95"/>
</svg>
