<svg width="1303" height="398" viewBox="0 0 1303 398" fill="none" xmlns="http://www.w3.org/2000/svg">
<path d="M165.6 203.25H110.85V250H74.6001V119.25H110.85V169.5H165.6V119.25H201.85V250H165.6V203.25ZM284.038 252.5C242.288 252.5 220.538 224 220.538 184.75C220.538 145.5 242.288 116.75 284.038 116.75C325.788 116.75 347.538 145.5 347.538 184.75C347.538 224 325.788 252.5 284.038 252.5ZM284.038 218.75C304.288 218.75 311.288 209.75 311.288 184.75C311.288 159.75 304.288 150.5 284.038 150.5C264.038 150.5 256.788 159.75 256.788 184.75C256.788 209.75 264.038 218.75 284.038 218.75ZM420.78 250H358.78V119.25H420.78C452.78 119.25 463.03 134.5 463.03 153.75C463.03 171.25 452.28 180.75 434.78 181.25V185.25C455.28 185.75 466.78 195.75 466.78 214.75C466.78 234 456.28 250 420.78 250ZM416.28 153H395.03V171.75H416.28C424.03 171.75 426.78 169.5 426.78 162.5C426.78 155.5 424.03 153 416.28 153ZM417.78 196.25H395.03V216.25H417.78C427.53 216.25 430.53 213.25 430.53 206.25C430.53 199 427.53 196.25 417.78 196.25ZM546.489 252.5C504.739 252.5 482.989 224 482.989 184.75C482.989 145.5 504.739 116.75 546.489 116.75C588.239 116.75 609.989 145.5 609.989 184.75C609.989 224 588.239 252.5 546.489 252.5ZM546.489 218.75C566.739 218.75 573.739 209.75 573.739 184.75C573.739 159.75 566.739 150.5 546.489 150.5C526.489 150.5 519.239 159.75 519.239 184.75C519.239 209.75 526.489 218.75 546.489 218.75ZM695.838 252.5C654.338 252.5 635.088 224 635.088 184.75C635.088 145.5 654.338 116.75 695.838 116.75C735.088 116.75 754.338 144.5 754.338 174.25H718.088C717.088 160.75 713.838 150.5 696.088 150.5C674.838 150.5 671.338 163.5 671.338 184.75C671.338 206 674.838 218.75 696.088 218.75C713.838 218.75 717.088 208.5 718.088 195H754.338C754.338 224.75 735.088 252.5 695.838 252.5ZM890.477 153H845.727V250H809.477V153H764.727V119.25H890.477V153ZM1001.29 181.5H997.288L946.788 250H910.538V119.25H946.788V187.75H950.788L1001.29 119.25H1037.54V250H1001.29V181.5ZM1250.8 181.5H1246.8L1196.3 250H1160.05V119.25H1196.3V187.75H1200.3L1250.8 119.25H1287.05V250H1250.8V181.5Z" fill="#FF5500"/>
<path d="M71.0001 326C67.2001 326.8 61.6001 328 54.6001 328C49.8001 328 44.2001 327.4 38.4001 325.6C34.0001 324.4 24.6001 321.6 16.6001 313C15.0001 311.2 9.69172e-05 294.6 5.6001 272.4C10.8001 251.4 33.0001 236.4 54.0001 239.6C62.2001 240.8 70.0001 244.8 76.6001 251L62.4001 265.6C60.0001 263.2 56.2001 260.2 51.0001 259.6C40.2001 258 27.8001 266.4 25.2001 277.4C22.2001 289 31.2001 299.2 31.4001 299.2C35.6001 303.8 40.8001 305.4 44.2001 306.4C53.4001 309.2 61.2001 307.4 67.0001 306.2C77.6001 304 88.0001 298.8 97.0001 291.2L110 306.4C98.6001 316.2 85.2001 323 71.0001 326ZM205.686 291.4L218.886 306.6C205.686 318 192.086 324.8 178.286 326.6C172.886 327.2 164.886 327.6 157.286 327.8C151.486 328 145.486 328 139.886 328C139.086 328 138.486 328 137.886 328H137.086H136.886C136.886 328 136.886 328 136.686 328C112.286 328 92.486 308.2 92.486 283.8C92.486 259.2 112.286 239.4 136.686 239.4C161.286 239.4 181.086 259.2 181.086 283.8C181.086 292 178.886 300 174.886 306.6C175.086 306.6 175.286 306.6 175.686 306.6C185.486 305.2 195.486 300.2 205.686 291.4ZM137.086 307.8C150.286 307.8 160.886 297 160.886 283.8C160.886 270.4 150.086 259.6 136.686 259.6C123.486 259.6 112.486 270.4 112.486 283.8C112.486 297 123.486 308 136.686 308H136.886C136.886 308 136.886 308 137.086 307.8ZM314.67 291.4L327.87 306.6C314.67 318 301.07 324.6 287.27 326.6C281.87 327.2 273.87 327.6 266.27 327.8C260.47 328 254.47 328 248.87 328C248.07 328 247.47 328 246.87 328H246.67C246.27 328 246.07 328 245.67 328C221.27 328 201.47 308.2 201.47 283.8C201.47 262.8 215.87 245.2 235.47 240.6C222.47 227.4 217.27 220.2 220.07 211.4C222.87 202.6 231.27 201 238.07 199.6C242.87 198.6 248.47 197.6 254.47 194.4C261.87 190.4 268.47 184 273.67 175.4L290.87 186C283.67 197.6 274.67 206.4 263.87 212.2C255.67 216.6 248.47 218.2 243.07 219.2C247.07 224 254.27 230.8 260.87 237.2C265.27 241.4 269.87 245.8 274.67 250C284.07 258.2 290.07 270.2 290.07 283.8C290.07 292 287.87 300 283.87 306.6C284.07 306.6 284.27 306.6 284.67 306.4C294.47 305.2 304.47 300.2 314.67 291.4ZM221.47 283.8C221.47 297 232.47 307.8 245.67 307.8H245.87H246.07C259.27 307.6 269.87 297 269.87 283.8C269.87 270.4 259.07 259.4 245.67 259.4C232.47 259.4 221.47 270.4 221.47 283.8ZM440.855 291L452.855 307.2C434.255 321.2 420.055 328 409.455 328C404.655 328 400.655 326.6 397.455 324C392.055 320 389.655 313.4 389.855 304.6L390.455 284C386.655 286.6 382.655 288.6 378.455 290.2C378.455 290.8 378.455 291.6 378.455 292.2C378.855 301.6 375.455 310.8 368.855 317.6C362.455 324.4 353.655 328 344.455 328C335.255 328 326.255 324.2 319.855 317.2C313.255 310.2 309.855 300.8 310.455 291.4L311.255 239.4H331.455L331.055 262.2C335.455 260.2 340.255 259.4 345.055 259.4C355.255 259.6 364.255 264.2 370.455 271.6C373.455 270.6 376.255 269.2 378.655 267.4C389.455 259.6 391.055 245.6 391.055 239.4H411.655L410.055 305.2C410.055 306.4 410.055 307.2 410.055 307.8C413.655 307.4 423.255 304.2 440.855 291ZM354.255 303.6C357.055 300.8 358.455 296.8 358.455 293.2C358.055 285.8 351.855 279.8 344.655 279.6H344.455C337.255 279.6 331.055 285.4 330.655 292.6C330.255 296.6 331.655 300.4 334.455 303.4C337.255 306.2 340.855 307.8 344.455 307.8C348.255 307.8 351.655 306.4 354.255 303.6ZM563.474 291.4L576.674 306.6C560.274 320.8 545.074 328.2 533.474 328.2C528.474 328.2 523.874 326.6 520.274 323.8C515.274 319.6 512.874 313.2 513.074 304.6L512.874 267.4C512.874 266.2 512.874 265 512.874 264.2V263.8C512.674 261.2 511.874 260.4 511.874 260.4C510.674 259.6 504.074 261.4 499.074 266C497.074 268 495.674 270.6 494.674 273.4L493.474 328H473.474L474.674 263.6C474.274 261.2 473.474 260.4 473.474 260.4C472.074 259.6 465.474 261.6 460.674 266.2C458.074 268.8 456.674 271.8 455.874 274.2V274.4L454.874 328H434.674L436.274 239.2H456.474L456.274 244.6C465.874 239.6 477.274 238 485.674 244.2C486.674 245 488.074 246.2 489.474 248C499.674 240.4 514.074 236.8 524.074 244.2C526.874 246.4 532.074 251.8 533.074 262.2C533.074 262.8 533.074 263.2 533.074 264.4C533.074 265.2 533.074 266.2 533.074 267.4V269L533.274 304.8C533.274 306.4 533.274 307.4 533.474 308C536.874 308 547.874 304.8 563.474 291.4ZM666.488 291.4L679.688 306.6C663.288 320.8 648.288 328.2 636.688 328.2C631.488 328.2 627.088 326.6 623.488 323.8C618.488 319.6 615.888 313.2 616.088 304.6L616.288 299C616.088 299.2 615.888 299.4 615.888 299.6C613.288 303 592.688 328 575.488 328C572.888 328 570.088 327.4 567.688 326C561.688 322.6 558.688 315.6 559.088 305.8L560.688 239.4H580.888L579.288 306.2C579.088 306.4 579.088 306.4 579.088 306.4C584.288 303.4 592.688 296.2 599.888 287.2C609.888 274.6 616.088 258.2 617.888 240V239.8V239.4H638.088V240.2V241.2L636.288 305C636.288 306.4 636.488 307.4 636.488 308C640.088 308 650.888 304.8 666.488 291.4ZM773.617 290.8L786.817 306C770.417 320.2 755.217 327.6 743.617 327.6C738.417 327.6 734.017 326.2 730.417 323.2C727.217 320.6 725.017 317 724.017 312.6C715.417 321 703.417 328 691.417 328C686.417 328 681.617 326.8 677.017 324C665.817 317.2 660.217 302.4 662.417 285.6L682.417 288C681.417 296.4 683.417 304.4 687.617 306.8C692.817 310 703.217 304.8 710.217 297.8C708.017 297.2 705.817 296.4 703.817 295.4C690.417 288.4 686.217 273 689.017 261.8C693.617 244 716.417 234 739.817 239.4L735.217 259C721.017 255.8 710.017 261.6 708.617 267C707.817 269.6 708.817 275.4 713.017 277.4C716.017 279 720.017 278.4 723.017 276.2V269.6H743.217V304.4C743.217 305.8 743.417 306.8 743.417 307.4C747.017 307.6 758.017 304.2 773.617 290.8Z" fill="#9FE0D6"/>
</svg>
