<svg width="1205" height="621" viewBox="0 0 1205 621" fill="none" xmlns="http://www.w3.org/2000/svg">
<path d="M567.5 184L540.5 145L586 166.5L596.5 201L567.5 184Z" fill="#5E40EB"/>
<path d="M1126 239L1122 183.5L1162 158.5L1166 198L1126 239Z" fill="#5E40EB"/>
<path d="M22.4995 281L38.5005 154L69.5005 174.501L53.5005 338.001L22.4995 281Z" fill="#5E40EB"/>
<path d="M439.108 132.948L401 172L468 300L516.391 253.439L439.108 132.948Z" fill="#5E40EB"/>
<path d="M1136.5 0L486.729 37.6982L859.145 620.863H1204.56L1136.5 0ZM364.337 44.7998L66.9365 62.0537L0 620.863H732.218L364.337 44.7998Z" fill="#FF5500"/>
<path d="M38.5764 153.998L439.108 132.948L516.391 253.439L22.4998 281L38.5764 153.998Z" fill="#6849FE"/>
<path d="M540.5 145L1162 158.5L1166 198L567.5 184L540.5 145Z" fill="#6849FE"/>
</svg>
