<svg width="1225" height="621" viewBox="0 0 1225 621" fill="none" xmlns="http://www.w3.org/2000/svg">
<path d="M782.5 143.863L795.266 119.863L770 155.863L779.803 179.527L782.5 143.863Z" fill="#5E40EB"/>
<path d="M1212.52 164.839L1217.5 128.988L1195.5 133.31L1188.5 175.988L1212.52 164.839Z" fill="#5E40EB"/>
<path d="M22.5 222.863L0 40.3633L50 122.363L60 275.863L22.5 222.863Z" fill="#5E40EB"/>
<path d="M618.901 117.7L738.5 40.8633L626.68 222.978L527.5 276.863L618.901 117.7Z" fill="#5E40EB"/>
<path d="M1156.5 620.863L506.729 583.165L879.145 0H1224.56L1156.5 620.863ZM384.337 576.063L86.9365 558.81L20 0H752.218L384.337 576.063Z" fill="#FF5500"/>
<path d="M0 40.3633L738.013 40.3633L626.193 222.863L21.8778 222.863L0 40.3633Z" fill="#6849FE"/>
<path d="M0 40.3633L738.013 40.3633L626.193 222.863L21.8778 222.863L0 40.3633Z" fill="#6849FE"/>
<path d="M794.965 119.988L1217.5 128.83L1212.53 164.988L769.5 155.988L794.965 119.988Z" fill="#6849FE"/>
</svg>
