<svg width="1440" height="621" viewBox="0 0 1440 621" fill="none" xmlns="http://www.w3.org/2000/svg">
<path d="M43.5 131.694L85 104L144.5 287.5L226.5 323L298.5 147.5L248 17L315 38.5L367.5 147.5L341.5 239L367.5 313.5L470.5 384.5L558.5 406.5L606.5 259.5V104L673.5 68.5L710 247L775 360L874 417L925.5 412.5L949 360L1022 371.5L1043 405.5L1133.5 417L1218.5 210L1251.5 188L1260 131.694L1316 93L1352.5 44L1439 38.5V331V609H262H103H-56.5L43.5 131.694Z" fill="#7DB2AA" fill-opacity="0.8"/>
<path d="M0 282.5H132.5L220 359.5H341L414 472V609H960.5V485L1098 350L1443 259V485V609H0V282.5Z" fill="#FEE4B2"/>
<mask id="mask0_62_2" style="mask-type:alpha" maskUnits="userSpaceOnUse" x="0" y="259" width="1443" height="350">
<path d="M0 282.5H132.5L220 359.5H341L414 472V609H960.5V485L1098 350L1443 259V485V609H0V282.5Z" fill="#FEE4B2"/>
</mask>
<g mask="url(#mask0_62_2)">
<path d="M-34.5 274H164.5L220.5 358L350.5 355V369.5L217 358L145.5 286L-1.5 482L-46.5 292.5L-34.5 274Z" fill="#E8CE9D"/>
<path d="M1127.5 395L1207.5 387.5L1251 342.5L1360.5 316L1407 444L1257 487L1088 510.5L1127.5 395Z" fill="#FFEAC3"/>
<path d="M934 396.5L1463 227L1474.5 254.5L1410 450.5L1283 307.5L1100 354L934 510.5V396.5Z" fill="#E8CE9D"/>
<mask id="mask1_62_2" style="mask-type:alpha" maskUnits="userSpaceOnUse" x="1088" y="316" width="319" height="195">
<path d="M1127.5 395L1207.5 387.5L1251 342.5L1360.5 316L1407 444L1257 487L1088 510.5L1127.5 395Z" fill="#FFEAC3"/>
</mask>
<g mask="url(#mask1_62_2)">
<path d="M1083.55 506.548L1327.55 436.548L1289.05 465.548L1086.55 519.548L1083.55 506.548Z" fill="#EFDBB4"/>
<path d="M1111.5 342H1169.5L1384 312L1400 464.5L1250 345.5L1213 388.5L1130.5 398L1102 405.5L1127 300L1111.5 342Z" fill="#EFDBB4"/>
</g>
</g>
<path d="M0 467L260.5 455.5L377.5 487H609.5L708.5 467H771L827.5 487L1133.5 498L1255.5 460L1360.5 417L1449.5 410L1443 611H0V467Z" fill="#FFEFD2"/>
<mask id="mask2_62_2" style="mask-type:alpha" maskUnits="userSpaceOnUse" x="0" y="410" width="1450" height="202">
<path d="M0 467L260.5 455.5L377.5 487H609.5L708.5 467H771L827.5 487L1133.5 498L1255.5 460L1360.5 417L1449.5 410L1443 611H0V467Z" fill="#FFEFD2"/>
</mask>
<g mask="url(#mask2_62_2)">
<path d="M-43 430.5H242L319.5 457L-43 485.5V430.5Z" fill="#EADDC3"/>
<path d="M922.933 532.46L942.261 515.17L948.445 518.955L937.622 544.572L967 563.497L960.815 567.282L932.983 564.375L922.933 596.17L910.563 569.674L875 568.917L908.244 565.889L922.933 532.46Z" fill="#EADDC3"/>
<path d="M608 432H893L825.5 487L789.5 474.5L729 471L608 487V432Z" fill="#EADDC3"/>
<path d="M1131 552.5L1202 560V628H1092.5L1131 552.5Z" fill="#EADDC3"/>
<path d="M87 566.5L287.5 572.5L299 582.5L83 576.5L87 566.5Z" fill="#EADDC3"/>
<path d="M886.5 519H889.5L914.5 534L943.5 515.5L929.5 551.5L878.5 568L902 546.5L886.5 519Z" fill="#EADDC3"/>
<path d="M471 508.5L576.5 537L529.5 569.5L465 534.5L471 508.5Z" fill="#EADDC3"/>
<path d="M461 455L707 471.5L560.5 546L467 531L461 455Z" fill="#EADDC3"/>
<rect x="71.5488" y="439" width="105" height="68" transform="rotate(53.3396 71.5488 439)" fill="#EADDC3"/>
<path d="M72.5 523L104 513L121.5 484.5L170 480.5L213.5 508L251 520.5L296 580L84 574L88.5 562L65.5 559.5L72.5 523Z" fill="#EADDC3"/>
<path d="M825 486L1113.5 516L1176 650L1613 532L1712 368.5L1006.5 443.5L946 447L825 431V486Z" fill="#EADDC3"/>
</g>
<path d="M11.3355 89H40.4839L63.1548 231.662L72.871 119.802L89.0645 124.666L85.8258 195.997L82.5871 220.314L111.735 184.648L121.452 111.696L142.503 119.802L132.787 195.997L69.6323 270.57L105.258 453.761L165.174 405.126L137.645 343.522L129.548 315.962L126.31 244.631L148.981 247.874L157.077 304.614L171.652 264.085L176.51 213.829L199.181 220.314L192.703 283.539L165.174 332.174L192.703 367.84L199.181 362.976L221.852 254.358L251 241.389L221.852 379.188L108.497 482.942L119.832 564L66.3935 557.515L40.4839 338.659L0 288.403V270.57L37.2452 294.887L11.3355 89Z" fill="#2E1CAF"/>
<mask id="mask3_62_2" style="mask-type:alpha" maskUnits="userSpaceOnUse" x="0" y="89" width="251" height="475">
<path d="M11.3355 89H40.4839L63.1548 231.662L72.871 119.802L89.0645 124.666L85.8258 195.997L82.5871 220.314L111.735 184.648L121.452 111.696L142.503 119.802L132.787 195.997L69.6323 270.57L105.258 453.761L165.174 405.126L137.645 343.522L129.548 315.962L126.31 244.631L148.981 247.874L157.077 304.614L171.652 264.085L176.51 213.829L199.181 220.314L192.703 283.539L165.174 332.174L192.703 367.84L199.181 362.976L221.852 254.358L251 241.389L221.852 379.188L108.497 482.942L119.832 564L66.3935 557.515L40.4839 338.659L0 288.403V270.57L37.2452 294.887L11.3355 89Z" fill="#2E1CAF"/>
</mask>
<g mask="url(#mask3_62_2)">
<path d="M-13.5 246.5L1 69.5L53 82L66.5 104L44 102L14.5 93.5L45.5 299L50 338L65.5 442L69.5 554L133.5 563.5L126.5 593.5L56 549L-13.5 246.5Z" fill="#1F1474"/>
<path d="M195.5 262L198 282L171 337.5L195.5 366L191.5 369L163 333L195.5 262Z" fill="#1F1474"/>
<path d="M107 481L213 378.5L252.5 230.5L263 242L237.5 381L111 498L107 481Z" fill="#1F1474"/>
<path d="M121.5 245H128.5L132 323L165 408L121.5 337.5V245Z" fill="#1F1474"/>
<rect x="126" y="241" width="24" height="8" fill="#1F1474"/>
<rect x="167.705" y="208.389" width="40" height="8" transform="rotate(7.60381 167.705 208.389)" fill="#1F1474"/>
<rect x="53.0586" y="113" width="40" height="8" transform="rotate(7.60381 53.0586 113)" fill="#1F1474"/>
<path d="M93.9656 115L89 188L82.5 221.5L87 158L86.0001 115.743L93.9656 115Z" fill="#1F1474"/>
<path d="M118 110.175L141.807 121.947L146.907 119.273L123.1 107.501L118 110.175Z" fill="#1F1474"/>
<path d="M68.9999 270.441L126.992 198L144 108.5L133.48 194.725L75.4881 275.121L68.9999 270.441Z" fill="#1F1474"/>
<rect x="216" y="249.665" width="38.127" height="8" transform="rotate(-21.1641 216 249.665)" fill="#1F1474"/>
</g>
<path d="M131 491L181 486L206 517.5L253 527L291.5 578H253L86 574L93 540L115 517.5L131 491Z" fill="#707C83"/>
<mask id="mask4_62_2" style="mask-type:alpha" maskUnits="userSpaceOnUse" x="86" y="486" width="206" height="93">
<path d="M131 491L181 486L206 517.5L253 527L291.5 578H253L86 574L93 540L115 517.5L131 491Z" fill="#707C83"/>
</mask>
<g mask="url(#mask4_62_2)">
<path d="M126.732 482.5L164.5 486.5H186.5L157.5 505L141.232 571.5L161.5 587L77.5 581L89 531.5L126.732 482.5Z" fill="#606E76"/>
</g>
<path d="M1452.27 34.2441L1421.47 37.4432L1412.67 185.899L1390.52 72.5135L1373.92 79.2669L1384.92 151.895L1390.93 176.421L1356.33 143.128L1338.32 69.5517L1316.93 80.1557L1335.29 157.049L1409.96 226.419L1391.78 417.765L1323.29 374.58L1345.84 308.527L1351.46 279.44L1347.31 206.1L1323.69 211.906L1321.17 270.85L1301.46 230.981L1290.98 180.094L1267.71 189.217L1281.28 253.197L1315.54 299.937L1290.24 339.45L1282.87 335.185L1247.37 226.539L1215.19 216.468L1260.64 354.26L1391.45 447.978L1388.09 532.158L1443.87 519.658L1448 292.887L1485.44 237.023L1483.54 218.777L1446.77 247.746L1452.27 34.2441Z" fill="#2E1CAF"/>
<mask id="mask5_62_2" style="mask-type:alpha" maskUnits="userSpaceOnUse" x="1215" y="34" width="271" height="499">
<path d="M1452.27 34.2441L1421.47 37.4432L1412.67 185.899L1390.52 72.5135L1373.92 79.2669L1384.92 151.895L1390.93 176.421L1356.33 143.128L1338.32 69.5517L1316.93 80.1557L1335.29 157.049L1409.96 226.419L1391.78 417.765L1323.29 374.58L1345.84 308.527L1351.46 279.44L1347.31 206.1L1323.69 211.906L1321.17 270.85L1301.46 230.981L1290.98 180.094L1267.71 189.217L1281.28 253.197L1315.54 299.937L1290.24 339.45L1282.87 335.185L1247.37 226.539L1215.19 216.468L1260.64 354.26L1391.45 447.978L1388.09 532.158L1443.87 519.658L1448 292.887L1485.44 237.023L1483.54 218.777L1446.77 247.746L1452.27 34.2441Z" fill="#2E1CAF"/>
</mask>
<g mask="url(#mask5_62_2)">
<path d="M1495.25 192.668L1461.12 13.1578L1407.5 31.6545L1395.57 55.6459L1419.13 51.1302L1449.41 39.1956L1438.48 252.86L1437.87 293.257L1432.54 401.368L1440.22 516.402L1373.59 533.147L1384.18 563.074L1453.95 509.805L1495.25 192.668Z" fill="#1F1474"/>
<path d="M1276.03 231.465L1275.52 252.203L1309.95 306.026L1287.09 337.875L1291.63 340.505L1317.92 300.543L1276.03 231.465Z" fill="#1F1474"/>
<path d="M1392.83 445.827L1269.92 352.585L1212.45 205.491L1202.58 218.41L1244.29 357.832L1390.41 463.66L1392.83 445.827Z" fill="#1F1474"/>
<path d="M1352.43 205.949L1345.03 206.718L1349.62 286.909L1323.78 377.501L1362.26 300.593L1352.43 205.949Z" fill="#1F1474"/>
<rect width="25.499" height="8.2294" transform="matrix(-0.99465 0.1033 0.1033 0.99465 1347.25 202.351)" fill="#1F1474"/>
<rect width="42.475" height="8.23421" transform="matrix(-0.973203 0.229947 0.238189 0.971219 1299.71 173.561)" fill="#1F1474"/>
<rect width="42.475" height="8.23421" transform="matrix(-0.973203 0.229947 0.238189 0.971219 1410.73 63.3794)" fill="#1F1474"/>
<path d="M1367.71 69.9154L1380.72 144.062L1391.15 177.625L1379.64 113.147L1376.21 69.801L1367.71 69.9154Z" fill="#1F1474"/>
<path d="M1341.8 67.6161L1317.89 82.2738L1312.22 80.0983L1336.13 65.4405L1341.8 67.6161Z" fill="#1F1474"/>
<path d="M1410.61 226.218L1341.63 158.463L1314.15 68.7558L1334.43 155.824L1404.25 231.719L1410.61 226.218Z" fill="#1F1474"/>
<rect width="40.3427" height="8.26513" transform="matrix(-0.967626 -0.25239 -0.273383 0.961905 1253.06 221.094)" fill="#1F1474"/>
</g>
<path d="M1408.86 437.343L1317.56 424.53L1248.81 469.501L1231.06 509.703L1203.35 508.945L1182.55 536.117L1129.14 562.398L1110 610.653L1180.51 610.653L1486.6 610.761L1475.69 540.294L1436.67 492.793L1408.86 437.343Z" fill="#707C83"/>
<mask id="mask6_62_2" style="mask-type:alpha" maskUnits="userSpaceOnUse" x="1112" y="424" width="375" height="187">
<path d="M1408.36 437.274L1317.06 424.46L1248.31 469.432L1230.56 509.633L1202.85 508.876L1182.05 536.048L1128.64 562.329L1112 610.583L1180.01 610.583L1486.1 610.692L1475.19 540.225L1436.17 492.724L1408.36 437.274Z" fill="#707C83"/>
</mask>
<g mask="url(#mask6_62_2)">
<path d="M1417.15 420.014L1347.76 426.373L1307.46 425.272L1359.53 464.875L1385.58 602.828L1347.59 633.778L1501.77 625.608L1483.5 522.952L1417.15 420.014Z" fill="#606E76"/>
<path d="M1210.5 536.779L1186.3 588.739L1161.51 620.519L1224.28 602.103L1350.78 662.991L1353.15 711.939L1388.5 611.986L1381 584.486L1363.5 573.486L1353 541.986L1210.5 536.779Z" fill="#606E76"/>
<path d="M1117.98 542.354L1198.33 511.877L1251.36 466.475L1326.01 419.199L1251.14 474.483L1231.08 509.073L1205.74 511.463L1117.3 566.993L1117.98 542.354Z" fill="#606E76"/>
<path d="M1210.11 540.43L1348.63 540.887L1361.33 576.988L1377.69 587.299L1384.43 611.525L1359.75 612.083L1269.77 611.474L1153.89 610.774L1161.85 574.386L1191.27 567.165L1210.11 540.43Z" fill="#899C9F"/>
<mask id="mask7_62_2" style="mask-type:alpha" maskUnits="userSpaceOnUse" x="1153" y="540" width="232" height="69">
<path d="M1210.11 540.43L1348.63 540.888L1361.33 576.989L1377.69 587.299L1384.43 608.986L1359.75 608.986L1269.77 608.986L1153.89 608.986L1161.85 574.386L1191.27 567.165L1210.11 540.43Z" fill="#899C9F"/>
</mask>
<g mask="url(#mask7_62_2)">
<path d="M1201.59 527.994L1238.55 529.004L1355.99 540.227L1363.89 544.141L1395.62 623.914L1359.28 622.921L1297.85 547.268L1249.32 541.011L1203.95 554.566L1191.21 569.629L1162.67 576.247L1156.5 599L1158.5 576.999L1201.59 527.994Z" fill="#7D9296"/>
</g>
</g>
<path d="M1171.66 515.924L1190.46 529.383L1210.17 529.922L1227.65 521.718L1240.92 509.972L1256.74 514.55L1263.68 531.384L1193.98 555.37L1172.75 565.27L1158.65 562.368L1148.82 562.1L1143.84 541.055L1154.57 532.162L1153.06 519.68L1171.66 515.924Z" fill="#707C83"/>
<mask id="mask8_62_2" style="mask-type:alpha" maskUnits="userSpaceOnUse" x="1143" y="509" width="121" height="57">
<path d="M1171.66 515.924L1190.46 529.383L1210.17 529.922L1227.65 521.719L1240.92 509.972L1256.74 514.55L1263.68 531.384L1193.98 555.37L1172.75 565.27L1158.65 562.369L1148.82 562.1L1143.84 541.055L1154.57 532.162L1153.06 519.68L1171.66 515.924Z" fill="#707C83"/>
</mask>
<g mask="url(#mask8_62_2)">
<path d="M1145.86 514.772L1175.42 515.58L1174.12 518.01L1154.93 521.184L1154.59 533.504L1144.52 541.243L1146.66 553.014L1144.2 552.947L1143.14 523.944L1145.86 514.772Z" fill="#606E76"/>
</g>
<path d="M948.258 518.121L936.16 545.384L965.747 563.471L961.557 566.209L932.784 563.604L931.18 566.229L924.745 598.648L918.201 594.647L911.538 569.596L908.629 567.818L875.248 570.693L878.495 565.38L901.592 548.143L902.752 546.245L884.03 519.815L888.287 516.119L917.874 534.206L942.44 514.565L948.258 518.121Z" fill="#E67964"/>
<mask id="mask9_62_2" style="mask-type:alpha" maskUnits="userSpaceOnUse" x="875" y="514" width="91" height="85">
<path d="M948.258 518.121L936.16 545.384L965.747 563.471L961.557 566.209L932.784 563.604L931.18 566.229L924.745 598.648L918.201 594.647L911.538 569.596L908.629 567.818L875.248 570.692L878.495 565.38L901.592 548.142L902.752 546.245L884.03 519.815L888.287 516.119L917.874 534.206L942.44 514.565L948.258 518.121Z" fill="#E67964"/>
</mask>
<g mask="url(#mask9_62_2)">
<path d="M873.9 571.014L910.695 565.613L919.182 593.39L923.812 594.933L928.441 574.872L932.299 560.212L960.075 564.842L963.161 562.527L935.385 546.324L947.73 517.005L950.816 523.949L970.346 558.669L964.945 618.08L917.879 598.791L909.392 568.7L873.9 571.014Z" fill="#C26756"/>
</g>
<path d="M479.823 308.691L536.72 161.889V102.704L490.274 0L558.202 110.247V161.889L536.72 268.074L586.07 219.914L591.295 172.914L586.07 118.37L608.713 85.8765V172.914L617.421 234.42L550.654 352.79V492.63L586.07 404.432L603.487 381.802L632.516 253.568L636 284.321L632.516 362.654L586.07 480.444L560.524 546.012L530.915 564L466.47 530.926L440.924 329L361.384 244.864L337 182.778L352.676 102.704L366.61 59.7654L407.831 4.06173L420.023 22.0494L366.61 96.321L371.254 204.247L453.697 334.802L490.274 510.037L479.823 308.691Z" fill="#649123"/>
<mask id="mask10_62_2" style="mask-type:alpha" maskUnits="userSpaceOnUse" x="337" y="0" width="299" height="564">
<path d="M479.823 308.691L536.72 161.889V102.704L490.274 0L558.202 110.247V161.889L536.72 268.074L586.07 219.914L591.295 172.914L586.07 118.37L608.713 85.8765V172.914L617.421 234.42L550.654 352.79V492.63L586.07 404.432L603.487 381.802L632.516 253.568L636 284.321L632.516 362.654L586.07 480.444L560.524 546.012L530.915 564L466.47 530.926L440.924 329L361.384 244.864L337 182.778L352.676 102.704L366.61 59.7654L407.831 4.06173L420.023 22.0494L366.61 96.321L371.254 204.247L453.697 334.802L490.274 510.037L479.823 308.691Z" fill="#649123"/>
</mask>
<g mask="url(#mask10_62_2)">
<path d="M456 524.73L531.5 560.5L555.5 545.5L558 567H471.764L456 524.73Z" fill="#507220"/>
<path d="M567.5 95.5L582.5 71.5L586 194.5L534.5 274.5L553.5 172L567.5 95.5Z" fill="#507220"/>
<path d="M449 216L491 -20.5L545.5 118.5L541 156.5L480 317L449 310V216Z" fill="#507220"/>
<path d="M434 4.50003L462.166 75.2993L434 298.5L364.5 213L367.5 81.4999L424.5 21.5L391.5 2.9999L434 4.50003Z" fill="#507220"/>
<path d="M396 499L326.5 161L374 36.5L353 110L343 188L370 247L444.5 329L474 595H396V499Z" fill="#507220"/>
<path d="M441 259.5L489.071 423L491.828 505.5L491.828 524.155L472 445.5L441 259.5Z" fill="#507220"/>
<path d="M618.5 267H629.5L598 398.5L553 467L618.5 267Z" fill="#507220"/>
<path d="M643.5 344L631.5 245.5L623 539L542.5 558L643.5 344Z" fill="#507220"/>
<path d="M545.5 333L621 224.5L617 214.5L598.5 126.5L609.5 77.5L629.5 235L553.5 352.5L551.5 492L545.5 333Z" fill="#507220"/>
</g>
</svg>
