<svg width="1440" height="604" viewBox="0 0 1440 604" fill="none" xmlns="http://www.w3.org/2000/svg">
<path d="M43.5 114.694L85 87L144.5 270.5L226.5 306L298.5 130.5L248 0L315 21.5L367.5 130.5L341.5 222L367.5 296.5L470.5 367.5L558.5 389.5L606.5 242.5V87L673.5 51.5L710 230L775 343L874 400L925.5 395.5L949 343L1022 354.5L1043 388.5L1133.5 400L1218.5 193L1251.5 171L1260 114.694L1316 76L1352.5 27L1439 21.5V314V592H262H103H-56.5L43.5 114.694Z" fill="#7DB2AA" fill-opacity="0.8"/>
<path d="M0 265.5H132.5L220 342.5H341L414 455V592H960.5V468L1098 333L1443 242V468V592H0V265.5Z" fill="#FEE4B2"/>
<mask id="mask0_62_2" style="mask-type:alpha" maskUnits="userSpaceOnUse" x="0" y="242" width="1443" height="350">
<path d="M0 265.5H132.5L220 342.5H341L414 455V592H960.5V468L1098 333L1443 242V468V592H0V265.5Z" fill="#FEE4B2"/>
</mask>
<g mask="url(#mask0_62_2)">
<path d="M-34.5 257H164.5L220.5 341L350.5 338V352.5L217 341L145.5 269L-1.5 465L-46.5 275.5L-34.5 257Z" fill="#E8CE9D"/>
<path d="M1127.5 378L1207.5 370.5L1251 325.5L1360.5 299L1407 427L1257 470L1088 493.5L1127.5 378Z" fill="#FFEAC3"/>
<path d="M934 379.5L1463 210L1474.5 237.5L1410 433.5L1283 290.5L1100 337L934 493.5V379.5Z" fill="#E8CE9D"/>
<mask id="mask1_62_2" style="mask-type:alpha" maskUnits="userSpaceOnUse" x="1088" y="299" width="319" height="195">
<path d="M1127.5 378L1207.5 370.5L1251 325.5L1360.5 299L1407 427L1257 470L1088 493.5L1127.5 378Z" fill="#FFEAC3"/>
</mask>
<g mask="url(#mask1_62_2)">
<path d="M1083.55 489.548L1327.55 419.548L1289.05 448.548L1086.55 502.548L1083.55 489.548Z" fill="#EFDBB4"/>
<path d="M1111.5 325H1169.5L1384 295L1400 447.5L1250 328.5L1213 371.5L1130.5 381L1102 388.5L1127 283L1111.5 325Z" fill="#EFDBB4"/>
</g>
</g>
<path d="M0 450L260.5 438.5L377.5 470H609.5L708.5 450H771L827.5 470L1133.5 481L1255.5 443L1360.5 400L1449.5 393L1443 594H0V450Z" fill="#FFEFD2"/>
<mask id="mask2_62_2" style="mask-type:alpha" maskUnits="userSpaceOnUse" x="0" y="393" width="1450" height="201">
<path d="M0 450L260.5 438.5L377.5 470H609.5L708.5 450H771L827.5 470L1133.5 481L1255.5 443L1360.5 400L1449.5 393L1443 594H0V450Z" fill="#FFEFD2"/>
</mask>
<g mask="url(#mask2_62_2)">
<path d="M-43 413.5H242L319.5 440L-43 468.5V413.5Z" fill="#EADDC3"/>
<path d="M922.933 515.46L942.261 498.17L948.445 501.955L937.622 527.572L967 546.497L960.815 550.282L932.983 547.375L922.933 579.17L910.563 552.674L875 551.917L908.244 548.889L922.933 515.46Z" fill="#EADDC3"/>
<path d="M608 415H893L825.5 470L789.5 457.5L729 454L608 470V415Z" fill="#EADDC3"/>
<path d="M1131 535.5L1202 543V611H1092.5L1131 535.5Z" fill="#EADDC3"/>
<path d="M87 549.5L287.5 555.5L299 565.5L83 559.5L87 549.5Z" fill="#EADDC3"/>
<path d="M886.5 502H889.5L914.5 517L943.5 498.5L929.5 534.5L878.5 551L902 529.5L886.5 502Z" fill="#EADDC3"/>
<path d="M471 491.5L576.5 520L529.5 552.5L465 517.5L471 491.5Z" fill="#EADDC3"/>
<path d="M461 438L707 454.5L560.5 529L467 514L461 438Z" fill="#EADDC3"/>
<rect x="71.5488" y="422" width="105" height="68" transform="rotate(53.3396 71.5488 422)" fill="#EADDC3"/>
<path d="M72.5 506L104 496L121.5 467.5L170 463.5L213.5 491L251 503.5L296 563L84 557L88.5 545L65.5 542.5L72.5 506Z" fill="#EADDC3"/>
<path d="M825 469L1113.5 499L1176 633L1613 515L1712 351.5L1006.5 426.5L946 430L825 414V469Z" fill="#EADDC3"/>
</g>
<path d="M11.3355 72H40.4839L63.1548 214.662L72.871 102.802L89.0645 107.666L85.8258 178.997L82.5871 203.314L111.735 167.648L121.452 94.6962L142.503 102.802L132.787 178.997L69.6323 253.57L105.258 436.761L165.174 388.126L137.645 326.522L129.548 298.962L126.31 227.631L148.981 230.874L157.077 287.614L171.652 247.085L176.51 196.829L199.181 203.314L192.703 266.539L165.174 315.174L192.703 350.84L199.181 345.976L221.852 237.358L251 224.389L221.852 362.188L108.497 465.942L119.832 547L66.3935 540.515L40.4839 321.659L0 271.403V253.57L37.2452 277.887L11.3355 72Z" fill="#2E1CAF"/>
<mask id="mask3_62_2" style="mask-type:alpha" maskUnits="userSpaceOnUse" x="0" y="72" width="251" height="475">
<path d="M11.3355 72H40.4839L63.1548 214.662L72.871 102.802L89.0645 107.666L85.8258 178.997L82.5871 203.314L111.735 167.648L121.452 94.6962L142.503 102.802L132.787 178.997L69.6323 253.57L105.258 436.761L165.174 388.126L137.645 326.522L129.548 298.962L126.31 227.631L148.981 230.874L157.077 287.614L171.652 247.085L176.51 196.829L199.181 203.314L192.703 266.539L165.174 315.174L192.703 350.84L199.181 345.976L221.852 237.358L251 224.389L221.852 362.188L108.497 465.942L119.832 547L66.3935 540.515L40.4839 321.659L0 271.403V253.57L37.2452 277.887L11.3355 72Z" fill="#2E1CAF"/>
</mask>
<g mask="url(#mask3_62_2)">
<path d="M-13.5 229.5L1 52.5L53 65L66.5 87L44 85L14.5 76.5L45.5 282L50 321L65.5 425L69.5 537L133.5 546.5L126.5 576.5L56 532L-13.5 229.5Z" fill="#1F1474"/>
<path d="M195.5 245L198 265L171 320.5L195.5 349L191.5 352L163 316L195.5 245Z" fill="#1F1474"/>
<path d="M107 464L213 361.5L252.5 213.5L263 225L237.5 364L111 481L107 464Z" fill="#1F1474"/>
<path d="M121.5 228H128.5L132 306L165 391L121.5 320.5V228Z" fill="#1F1474"/>
<rect x="126" y="224" width="24" height="8" fill="#1F1474"/>
<rect x="167.705" y="191.389" width="40" height="8" transform="rotate(7.60381 167.705 191.389)" fill="#1F1474"/>
<rect x="53.0586" y="96" width="40" height="8" transform="rotate(7.60381 53.0586 96)" fill="#1F1474"/>
<path d="M93.9656 98L89 171L82.5 204.5L87 141L86.0001 98.7426L93.9656 98Z" fill="#1F1474"/>
<path d="M118 93.1746L141.807 104.947L146.907 102.273L123.1 90.5012L118 93.1746Z" fill="#1F1474"/>
<path d="M68.9999 253.441L126.992 181L144 91.4998L133.48 177.724L75.4881 258.121L68.9999 253.441Z" fill="#1F1474"/>
<rect x="216" y="232.665" width="38.127" height="8" transform="rotate(-21.1641 216 232.665)" fill="#1F1474"/>
</g>
<path d="M131 474L181 469L206 500.5L253 510L291.5 561H253L86 557L93 523L115 500.5L131 474Z" fill="#707C83"/>
<mask id="mask4_62_2" style="mask-type:alpha" maskUnits="userSpaceOnUse" x="86" y="469" width="206" height="92">
<path d="M131 474L181 469L206 500.5L253 510L291.5 561H253L86 557L93 523L115 500.5L131 474Z" fill="#707C83"/>
</mask>
<g mask="url(#mask4_62_2)">
<path d="M126.732 465.5L164.5 469.5H186.5L157.5 488L141.232 554.5L161.5 570L77.5 564L89 514.5L126.732 465.5Z" fill="#606E76"/>
</g>
<path d="M1452.27 17.2441L1421.47 20.4432L1412.67 168.899L1390.52 55.5135L1373.92 62.2669L1384.92 134.895L1390.93 159.421L1356.33 126.128L1338.32 52.5517L1316.93 63.1557L1335.29 140.049L1409.96 209.419L1391.78 400.765L1323.29 357.58L1345.84 291.527L1351.46 262.44L1347.31 189.1L1323.69 194.906L1321.17 253.85L1301.46 213.981L1290.98 163.094L1267.71 172.217L1281.28 236.197L1315.54 282.937L1290.24 322.45L1282.87 318.185L1247.37 209.539L1215.19 199.468L1260.64 337.26L1391.45 430.978L1388.09 515.158L1443.87 502.658L1448 275.887L1485.44 220.023L1483.54 201.777L1446.77 230.746L1452.27 17.2441Z" fill="#2E1CAF"/>
<mask id="mask5_62_2" style="mask-type:alpha" maskUnits="userSpaceOnUse" x="1215" y="17" width="271" height="499">
<path d="M1452.27 17.2441L1421.47 20.4432L1412.67 168.899L1390.52 55.5135L1373.92 62.2669L1384.92 134.895L1390.93 159.421L1356.33 126.128L1338.32 52.5517L1316.93 63.1557L1335.29 140.049L1409.96 209.419L1391.78 400.765L1323.29 357.58L1345.84 291.527L1351.46 262.44L1347.31 189.1L1323.69 194.906L1321.17 253.85L1301.46 213.981L1290.98 163.094L1267.71 172.217L1281.28 236.197L1315.54 282.937L1290.24 322.45L1282.87 318.185L1247.37 209.539L1215.19 199.468L1260.64 337.26L1391.45 430.978L1388.09 515.158L1443.87 502.658L1448 275.887L1485.44 220.023L1483.54 201.777L1446.77 230.746L1452.27 17.2441Z" fill="#2E1CAF"/>
</mask>
<g mask="url(#mask5_62_2)">
<path d="M1495.25 175.668L1461.12 -3.8422L1407.5 14.6545L1395.57 38.6459L1419.13 34.1302L1449.41 22.1956L1438.48 235.86L1437.87 276.257L1432.54 384.368L1440.22 499.402L1373.59 516.147L1384.18 546.074L1453.95 492.805L1495.25 175.668Z" fill="#1F1474"/>
<path d="M1276.03 214.465L1275.52 235.203L1309.95 289.026L1287.09 320.875L1291.63 323.505L1317.92 283.543L1276.03 214.465Z" fill="#1F1474"/>
<path d="M1392.83 428.827L1269.92 335.585L1212.45 188.491L1202.58 201.41L1244.29 340.832L1390.41 446.66L1392.83 428.827Z" fill="#1F1474"/>
<path d="M1352.43 188.949L1345.03 189.718L1349.62 269.909L1323.78 360.501L1362.26 283.593L1352.43 188.949Z" fill="#1F1474"/>
<rect width="25.499" height="8.2294" transform="matrix(-0.99465 0.1033 0.1033 0.99465 1347.25 185.351)" fill="#1F1474"/>
<rect width="42.475" height="8.23421" transform="matrix(-0.973203 0.229947 0.238189 0.971219 1299.71 156.561)" fill="#1F1474"/>
<rect width="42.475" height="8.23421" transform="matrix(-0.973203 0.229947 0.238189 0.971219 1410.73 46.3794)" fill="#1F1474"/>
<path d="M1367.71 52.9155L1380.72 127.062L1391.15 160.625L1379.64 96.1474L1376.21 52.8011L1367.71 52.9155Z" fill="#1F1474"/>
<path d="M1341.8 50.6161L1317.89 65.2738L1312.22 63.0983L1336.13 48.4405L1341.8 50.6161Z" fill="#1F1474"/>
<path d="M1410.61 209.218L1341.63 141.463L1314.15 51.756L1334.43 138.824L1404.25 214.719L1410.61 209.218Z" fill="#1F1474"/>
<rect width="40.3427" height="8.26513" transform="matrix(-0.967626 -0.25239 -0.273383 0.961905 1253.06 204.094)" fill="#1F1474"/>
</g>
<path d="M1408.86 420.343L1317.56 407.53L1248.81 452.501L1231.06 492.702L1203.35 491.945L1182.55 519.117L1129.14 545.398L1110 593.652L1180.51 593.652L1486.6 593.761L1475.69 523.294L1436.67 475.793L1408.86 420.343Z" fill="#707C83"/>
<mask id="mask6_62_2" style="mask-type:alpha" maskUnits="userSpaceOnUse" x="1111" y="407" width="376" height="187">
<path d="M1408.36 420.274L1317.06 407.46L1248.31 452.432L1230.56 492.633L1202.85 491.876L1182.05 519.048L1128.64 545.329L1112 593.583L1180.01 593.583L1486.1 593.691L1475.19 523.225L1436.17 475.724L1408.36 420.274Z" fill="#707C83"/>
</mask>
<g mask="url(#mask6_62_2)">
<path d="M1417.15 403.014L1347.76 409.373L1307.46 408.272L1359.53 447.875L1385.58 585.828L1347.59 616.778L1501.77 608.608L1483.5 505.952L1417.15 403.014Z" fill="#606E76"/>
<path d="M1210.5 519.779L1186.3 571.738L1161.51 603.519L1224.28 585.103L1350.78 645.991L1353.15 694.939L1388.5 594.986L1381 567.486L1363.5 556.486L1353 524.986L1210.5 519.779Z" fill="#606E76"/>
<path d="M1117.98 525.354L1198.33 494.877L1251.36 449.475L1326.01 402.199L1251.14 457.483L1231.08 492.073L1205.74 494.463L1117.3 549.993L1117.98 525.354Z" fill="#606E76"/>
<path d="M1210.11 523.43L1348.63 523.887L1361.33 559.988L1377.69 570.299L1384.43 594.525L1359.75 595.083L1269.77 594.474L1153.89 593.774L1161.85 557.386L1191.27 550.165L1210.11 523.43Z" fill="#899C9F"/>
<mask id="mask7_62_2" style="mask-type:alpha" maskUnits="userSpaceOnUse" x="1153" y="523" width="232" height="69">
<path d="M1210.11 523.43L1348.63 523.888L1361.33 559.989L1377.69 570.299L1384.43 591.986L1359.75 591.986L1269.77 591.986L1153.89 591.986L1161.85 557.386L1191.27 550.165L1210.11 523.43Z" fill="#899C9F"/>
</mask>
<g mask="url(#mask7_62_2)">
<path d="M1201.59 510.994L1238.55 512.004L1355.99 523.226L1363.89 527.141L1395.62 606.914L1359.28 605.921L1297.85 530.268L1249.32 524.011L1203.95 537.566L1191.21 552.629L1162.67 559.247L1156.5 582L1158.5 559.999L1201.59 510.994Z" fill="#7D9296"/>
</g>
</g>
<path d="M1171.66 498.923L1190.46 512.383L1210.17 512.921L1227.65 504.718L1240.92 492.972L1256.74 497.55L1263.68 514.383L1193.98 538.37L1172.75 548.27L1158.65 545.368L1148.82 545.1L1143.84 524.055L1154.57 515.161L1153.06 502.68L1171.66 498.923Z" fill="#707C83"/>
<mask id="mask8_62_2" style="mask-type:alpha" maskUnits="userSpaceOnUse" x="1143" y="492" width="121" height="57">
<path d="M1171.66 498.924L1190.46 512.383L1210.17 512.922L1227.65 504.719L1240.92 492.972L1256.74 497.55L1263.68 514.384L1193.98 538.37L1172.75 548.27L1158.65 545.369L1148.82 545.1L1143.84 524.055L1154.57 515.162L1153.06 502.68L1171.66 498.924Z" fill="#707C83"/>
</mask>
<g mask="url(#mask8_62_2)">
<path d="M1145.86 497.772L1175.42 498.58L1174.12 501.01L1154.93 504.184L1154.59 516.504L1144.52 524.243L1146.66 536.014L1144.2 535.946L1143.14 506.944L1145.86 497.772Z" fill="#606E76"/>
</g>
<path d="M948.258 501.121L936.16 528.384L965.747 546.471L961.557 549.209L932.784 546.604L931.18 549.229L924.745 581.648L918.201 577.647L911.538 552.596L908.629 550.818L875.248 553.693L878.495 548.38L901.592 531.143L902.752 529.245L884.03 502.815L888.287 499.119L917.874 517.206L942.44 497.565L948.258 501.121Z" fill="#E67964"/>
<mask id="mask9_62_2" style="mask-type:alpha" maskUnits="userSpaceOnUse" x="875" y="497" width="91" height="85">
<path d="M948.258 501.121L936.16 528.384L965.747 546.471L961.557 549.209L932.784 546.604L931.18 549.229L924.745 581.648L918.201 577.647L911.538 552.596L908.629 550.818L875.248 553.693L878.495 548.38L901.592 531.143L902.752 529.245L884.03 502.815L888.287 499.119L917.874 517.206L942.44 497.565L948.258 501.121Z" fill="#E67964"/>
</mask>
<g mask="url(#mask9_62_2)">
<path d="M873.9 554.014L910.695 548.613L919.182 576.39L923.812 577.933L928.441 557.872L932.299 543.212L960.075 547.842L963.161 545.527L935.385 529.324L947.73 500.005L950.816 506.949L970.346 541.669L964.945 601.08L917.879 581.791L909.392 551.7L873.9 554.014Z" fill="#C26756"/>
</g>
</svg>
