<svg width="36" height="34" viewBox="0 0 36 34" fill="none" xmlns="http://www.w3.org/2000/svg">
<mask id="path-1-inside-1_56_713" fill="white">
<path d="M33.1424 1.12077C33.9812 0.732887 34.8517 1.59255 34.4744 2.4362L21.1931 32.1237C20.8708 32.8439 19.8807 32.9248 19.4461 32.2663L13.8269 23.7526C13.5791 23.377 13.6126 22.8823 13.909 22.5436L17.2605 18.7116L9.97146 20.738C9.91551 20.7534 9.86 20.7533 9.80642 20.7477C9.62944 20.7677 9.44734 20.7437 9.28005 20.6676L1.98513 17.3512C1.20667 16.9971 1.203 15.892 1.97927 15.5329L33.1424 1.12077Z"/>
</mask>
<path d="M33.1424 1.12077C33.9812 0.732887 34.8517 1.59255 34.4744 2.4362L21.1931 32.1237C20.8708 32.8439 19.8807 32.9248 19.4461 32.2663L13.8269 23.7526C13.5791 23.377 13.6126 22.8823 13.909 22.5436L17.2605 18.7116L9.97146 20.738C9.91551 20.7534 9.86 20.7533 9.80642 20.7477C9.62944 20.7677 9.44734 20.7437 9.28005 20.6676L1.98513 17.3512C1.20667 16.9971 1.203 15.892 1.97927 15.5329L33.1424 1.12077Z" fill="url(#paint0_linear_56_713)"/>
<path d="M33.1424 1.12077L33.0164 0.848468L33.0164 0.848476L33.1424 1.12077ZM34.4744 2.4362L34.7482 2.55871L34.7482 2.55867L34.4744 2.4362ZM21.1931 32.1237L21.467 32.2462L21.467 32.2462L21.1931 32.1237ZM19.4461 32.2663L19.1957 32.4315L19.1957 32.4315L19.4461 32.2663ZM13.8269 23.7526L13.5765 23.9178L13.5765 23.9179L13.8269 23.7526ZM13.909 22.5436L14.1347 22.7412L14.1348 22.7411L13.909 22.5436ZM17.2605 18.7116L17.4863 18.9091L18.1469 18.1538L17.1802 18.4225L17.2605 18.7116ZM9.97146 20.738L10.0515 21.0271L10.0518 21.027L9.97146 20.738ZM9.80642 20.7477L9.83738 20.4493L9.80503 20.446L9.77271 20.4496L9.80642 20.7477ZM9.28005 20.6676L9.15589 20.9407L9.15591 20.9408L9.28005 20.6676ZM1.98513 17.3512L1.86091 17.6243L1.86097 17.6243L1.98513 17.3512ZM1.97927 15.5329L1.85334 15.2606L1.85332 15.2606L1.97927 15.5329ZM33.1424 1.12077L33.2683 1.39307C33.8554 1.12157 34.4646 1.72315 34.2005 2.31372L34.4744 2.4362L34.7482 2.55867C35.2387 1.46196 34.107 0.344208 33.0164 0.848468L33.1424 1.12077ZM34.4744 2.4362L34.2005 2.31369L20.9193 32.0012L21.1931 32.1237L21.467 32.2462L34.7482 2.55871L34.4744 2.4362ZM21.1931 32.1237L20.9193 32.0011C20.6937 32.5054 20.0006 32.5619 19.6964 32.101L19.4461 32.2663L19.1957 32.4315C19.7608 33.2877 21.048 33.1823 21.467 32.2462L21.1931 32.1237ZM19.4461 32.2663L19.6964 32.101L14.0773 23.5873L13.8269 23.7526L13.5765 23.9179L19.1957 32.4315L19.4461 32.2663ZM13.8269 23.7526L14.0773 23.5874C13.9039 23.3244 13.9273 22.9782 14.1347 22.7412L13.909 22.5436L13.6832 22.3461C13.2979 22.7864 13.2544 23.4296 13.5765 23.9178L13.8269 23.7526ZM13.909 22.5436L14.1348 22.7411L17.4863 18.9091L17.2605 18.7116L17.0347 18.5141L13.6831 22.3461L13.909 22.5436ZM17.2605 18.7116L17.1802 18.4225L9.89111 20.4489L9.97146 20.738L10.0518 21.027L17.3409 19.0006L17.2605 18.7116ZM9.97146 20.738L9.89138 20.4488C9.88555 20.4505 9.87157 20.4529 9.83738 20.4493L9.80642 20.7477L9.77545 21.0461C9.84844 21.0537 9.94548 21.0564 10.0515 21.0271L9.97146 20.738ZM9.80642 20.7477L9.77271 20.4496C9.64498 20.4641 9.51798 20.4463 9.40419 20.3945L9.28005 20.6676L9.15591 20.9408C9.37669 21.0411 9.6139 21.0714 9.84013 21.0458L9.80642 20.7477ZM9.28005 20.6676L9.40421 20.3945L2.10929 17.0781L1.98513 17.3512L1.86097 17.6243L9.15589 20.9407L9.28005 20.6676ZM1.98513 17.3512L2.10935 17.0782C1.56437 16.8302 1.5619 16.0565 2.10522 15.8052L1.97927 15.5329L1.85332 15.2606C0.844092 15.7274 0.848971 17.164 1.86091 17.6243L1.98513 17.3512ZM1.97927 15.5329L2.1052 15.8052L33.2683 1.39306L33.1424 1.12077L33.0164 0.848476L1.85334 15.2606L1.97927 15.5329Z" fill="url(#paint1_linear_56_713)" fill-opacity="0.4" mask="url(#path-1-inside-1_56_713)"/>
<g filter="url(#filter0_i_56_713)">
<path d="M1.98546 17.3512C1.20668 16.9972 1.20305 15.8923 1.97949 15.5332L33.1421 1.12045C33.981 0.732445 34.8522 1.59272 34.4747 2.43644L21.1936 32.1237C20.8713 32.8439 19.8809 32.9247 19.4462 32.2662L13.8267 23.753C13.5787 23.3773 13.6123 22.8823 13.9087 22.5436L21.3121 14.0826C21.5416 13.8203 21.2146 13.4434 20.9225 13.6337L10.2403 20.5945C9.95378 20.7812 9.59178 20.8086 9.2805 20.6671L1.98546 17.3512Z" fill="url(#paint2_linear_56_713)"/>
</g>
<path d="M33.2051 1.25684C33.9181 0.927064 34.6585 1.6579 34.3379 2.375L21.0566 32.0625C20.7827 32.6747 19.9408 32.7433 19.5713 32.1836L13.9521 23.6699C13.7416 23.3507 13.7697 22.9304 14.0215 22.6426L21.4248 14.1816C21.769 13.7882 21.2788 13.2227 20.8408 13.5078L10.1582 20.4688C9.91473 20.6274 9.60732 20.6505 9.34277 20.5303L2.04785 17.2148C1.38597 16.914 1.38227 15.9743 2.04199 15.6689L33.2051 1.25684Z" stroke="url(#paint3_linear_56_713)" stroke-opacity="0.4" stroke-width="0.3"/>
<defs>
<filter id="filter0_i_56_713" x="1.39929" y="-0.975586" width="33.166" height="33.6909" filterUnits="userSpaceOnUse" color-interpolation-filters="sRGB">
<feFlood flood-opacity="0" result="BackgroundImageFix"/>
<feBlend mode="normal" in="SourceGraphic" in2="BackgroundImageFix" result="shape"/>
<feColorMatrix in="SourceAlpha" type="matrix" values="0 0 0 0 0 0 0 0 0 0 0 0 0 0 0 0 0 0 127 0" result="hardAlpha"/>
<feOffset dy="-2"/>
<feGaussianBlur stdDeviation="2.5"/>
<feComposite in2="hardAlpha" operator="arithmetic" k2="-1" k3="1"/>
<feColorMatrix type="matrix" values="0 0 0 0 1 0 0 0 0 1 0 0 0 0 1 0 0 0 1 0"/>
<feBlend mode="normal" in2="shape" result="effect1_innerShadow_56_713"/>
</filter>
<linearGradient id="paint0_linear_56_713" x1="31.5524" y1="0.562038" x2="19.7102" y2="33.2144" gradientUnits="userSpaceOnUse">
<stop stop-color="#DBDBDB"/>
<stop offset="1" stop-color="#DBDBDB" stop-opacity="0.75"/>
</linearGradient>
<linearGradient id="paint1_linear_56_713" x1="17.9821" y1="1.0249" x2="17.9821" y2="32.7153" gradientUnits="userSpaceOnUse">
<stop stop-color="white" stop-opacity="0"/>
<stop offset="1" stop-color="white"/>
</linearGradient>
<linearGradient id="paint2_linear_56_713" x1="31.6393" y1="0.44456" x2="19.7162" y2="33.3419" gradientUnits="userSpaceOnUse">
<stop stop-color="white"/>
<stop offset="1" stop-color="white" stop-opacity="0.25"/>
</linearGradient>
<linearGradient id="paint3_linear_56_713" x1="17.7823" y1="0" x2="17.7823" y2="33.7865" gradientUnits="userSpaceOnUse">
<stop stop-color="white" stop-opacity="0"/>
<stop offset="1" stop-color="white"/>
</linearGradient>
</defs>
</svg>
