<svg width="35" height="24" viewBox="0 0 35 24" fill="none" xmlns="http://www.w3.org/2000/svg">
<g filter="url(#filter0_i_56_721)">
<path d="M14.0101 16.0589V14.4404V1.02343C14.0101 0.747292 14.234 0.523434 14.5101 0.523434H19.1096C19.3857 0.523434 19.6096 0.747292 19.6096 1.02343V9.24483C19.6096 9.24483 19.6096 9.24483 19.8751 9.24483C24.0237 9.24483 27.0745 2.40625 27.7187 0.840254C27.7979 0.64775 27.9829 0.523434 28.191 0.523434H32.3929C32.7684 0.523434 33.0094 0.917902 32.8304 1.24799C31.8102 3.12851 28.9398 8.25183 26.1912 11.6064C25.8791 11.9873 25.8791 11.9873 26.1912 12.0788C32.2927 13.8679 34.2087 20.5703 34.6514 22.5743C34.7174 22.8734 34.4869 23.1437 34.1806 23.1437H28.988C28.7856 23.1437 28.6043 23.0255 28.5201 22.8414C27.8512 21.3794 24.7048 15.112 19.9225 15.112C19.8188 15.112 19.6096 15.112 19.6096 15.112V22.6721C19.6096 22.9369 19.4032 23.1548 19.1386 23.1627C18.0732 23.1943 15.4267 23.2084 13.5671 22.6714C0.0955263 18.2176 -0.0792059 3.27698 0.0105758 0.460157C0.0189003 0.198982 0.234323 0 0.49563 0H5.43117C5.6938 0 5.91189 0.195406 5.93644 0.456884C6.1741 2.98835 7.61344 15.2104 13.3107 16.0589C13.7842 16.1294 14.0101 16.0589 14.0101 16.0589Z" fill="url(#paint0_linear_56_721)"/>
</g>
<path d="M0.496094 0.150391H5.43164C5.61788 0.150623 5.76984 0.287845 5.78711 0.470703C5.90625 1.73972 6.32703 5.44119 7.43359 8.93457C7.98673 10.6807 8.71409 12.3842 9.66699 13.707C10.6199 15.0297 11.8093 15.9866 13.2881 16.207C13.5356 16.2439 13.7224 16.245 13.8496 16.2354C13.9131 16.2305 13.962 16.2224 13.9961 16.2158C14.013 16.2126 14.0264 16.2095 14.0361 16.207L14.0518 16.2031L14.0537 16.2021H14.0547L14.1602 16.1689V1.02344C14.1602 0.830252 14.3166 0.674013 14.5098 0.673828H19.1094C19.3027 0.673828 19.46 0.830137 19.46 1.02344V9.39453H19.875C20.9549 9.39453 21.9545 8.94962 22.8506 8.27148C23.7465 7.59349 24.5475 6.67646 25.2334 5.7168C26.6049 3.79771 27.5337 1.68444 27.8574 0.897461C27.9136 0.761002 28.0442 0.673828 28.1914 0.673828H32.3926C32.6576 0.673828 32.8216 0.949415 32.6982 1.17676C31.6777 3.05801 28.8136 8.16963 26.0752 11.5117C25.9988 11.6049 25.9363 11.681 25.8936 11.7412C25.872 11.7716 25.8519 11.8029 25.8369 11.834C25.8224 11.8641 25.8076 11.9046 25.8076 11.9512C25.8077 12.0705 25.8969 12.1295 25.9502 12.1553C26.0031 12.1808 26.0771 12.2015 26.1494 12.2227C29.1523 13.1034 31.1302 15.1938 32.415 17.3232C33.7003 19.4535 34.2853 21.6126 34.5049 22.6064C34.549 22.806 34.3972 22.9941 34.1807 22.9941H28.9883C28.8456 22.9941 28.7165 22.9108 28.6562 22.7793C28.3195 22.0432 27.3594 20.0966 25.8789 18.332C24.4019 16.5717 22.3815 14.9621 19.9229 14.9619H19.46V22.6719C19.46 22.8577 19.3153 23.0073 19.1338 23.0127C18.1337 23.0424 15.7644 23.0552 13.9609 22.6201L13.6084 22.5273C6.93119 20.3177 3.54858 15.512 1.84375 10.8994C0.137142 6.28165 0.115544 1.86453 0.160156 0.464844C0.165815 0.288644 0.31174 0.150391 0.496094 0.150391Z" stroke="url(#paint1_linear_56_721)" stroke-width="0.3"/>
<defs>
<filter id="filter0_i_56_721" x="0" y="0" width="34.6627" height="24.1753" filterUnits="userSpaceOnUse" color-interpolation-filters="sRGB">
<feFlood flood-opacity="0" result="BackgroundImageFix"/>
<feBlend mode="normal" in="SourceGraphic" in2="BackgroundImageFix" result="shape"/>
<feColorMatrix in="SourceAlpha" type="matrix" values="0 0 0 0 0 0 0 0 0 0 0 0 0 0 0 0 0 0 127 0" result="hardAlpha"/>
<feOffset dy="1"/>
<feGaussianBlur stdDeviation="1.15"/>
<feComposite in2="hardAlpha" operator="arithmetic" k2="-1" k3="1"/>
<feColorMatrix type="matrix" values="0 0 0 0 1 0 0 0 0 1 0 0 0 0 1 0 0 0 1 0"/>
<feBlend mode="normal" in2="shape" result="effect1_innerShadow_56_721"/>
</filter>
<linearGradient id="paint0_linear_56_721" x1="8.49763" y1="23.1754" x2="29.7417" y2="-1.15877" gradientUnits="userSpaceOnUse">
<stop stop-color="white" stop-opacity="0.6"/>
<stop offset="1" stop-color="white"/>
</linearGradient>
<linearGradient id="paint1_linear_56_721" x1="17.7678" y1="25.8791" x2="27.8104" y2="1.15877" gradientUnits="userSpaceOnUse">
<stop stop-color="white"/>
<stop offset="1" stop-color="white" stop-opacity="0"/>
</linearGradient>
</defs>
</svg>
