<svg width="380" height="381" viewBox="0 0 380 381" fill="none" xmlns="http://www.w3.org/2000/svg">
<path d="M209.602 38.1788L221.171 42.5186C241.661 50.2045 260.831 61.0316 277.992 74.6113L296.809 89.5009C307.075 97.6248 315.562 107.773 321.742 119.314C330.569 135.8 334.363 154.515 332.652 173.138L332.299 176.988C330.905 192.159 326.329 206.865 318.869 220.148L315.554 226.051C309.665 236.537 302.45 246.222 294.088 254.867L281.499 267.881C259.105 291.031 228.454 304.369 196.25 304.978C185.348 305.185 174.467 303.926 163.9 301.236L130.846 292.823C120.697 290.239 110.786 286.796 101.221 282.529L94.6227 279.586C62.1913 265.121 35.3759 240.453 18.2603 209.338L26.8965 200.411L40.4189 198.029L92.7261 118.254L100.884 117.657L170.436 55.4732L178.459 37.4629L209.602 38.1788Z" fill="#FF5500"/>
<mask id="mask0_39_352" style="mask-type:alpha" maskUnits="userSpaceOnUse" x="18" y="37" width="316" height="269">
<path d="M209.602 38.1788L221.171 42.5186C241.661 50.2045 260.831 61.0316 277.992 74.6113L296.809 89.5009C307.075 97.6248 315.562 107.773 321.742 119.314C330.569 135.8 334.363 154.515 332.652 173.138L332.299 176.988C330.905 192.159 326.329 206.865 318.869 220.148L315.554 226.051C309.665 236.537 302.45 246.222 294.088 254.867L281.499 267.881C259.105 291.031 228.454 304.369 196.25 304.978C185.348 305.185 174.467 303.926 163.9 301.236L130.846 292.823C120.697 290.239 110.786 286.796 101.221 282.529L94.6227 279.586C62.1913 265.121 35.3759 240.453 18.2603 209.338L26.8965 200.411L40.4189 198.029L92.7261 118.254L100.884 117.657L170.436 55.4732L178.459 37.4629L209.602 38.1788Z" fill="#FF5500"/>
</mask>
<g mask="url(#mask0_39_352)">
<path d="M374.941 101.703L267.712 345.132L66.2915 289.759L13.4648 226.833L21.2552 190.063L56.3021 240.524C59.7023 245.42 64.7398 248.94 70.5062 250.449L140.07 268.653L260.523 144.134L259.459 107.935L374.941 101.703Z" fill="#DE500A"/>
<path d="M91.3062 116.274L170.247 192.637L229.653 122.762L170.222 70.4256L119.059 117.047L173.633 173.779L217.489 137.07L170.247 192.637L106.029 130.517L91.3062 116.274L162.077 62.5469L169.738 50.5531L253.534 131.613L193.899 197.022L209.809 208.47L211.598 214.143L184.657 206.576L106.625 249.944L97.1734 274.759L29.2184 191.742L91.3062 116.274Z" fill="#DE500A"/>
<mask id="mask1_39_352" style="mask-type:alpha" maskUnits="userSpaceOnUse" x="29" y="50" width="225" height="225">
<path d="M91.3062 116.274L170.247 192.637L229.653 122.762L170.222 70.4256L119.059 117.046L173.633 173.779L217.489 137.07L170.247 192.637L106.029 130.517L91.3062 116.274L162.077 62.5469L169.738 50.553L253.534 131.613L193.899 197.022L209.809 208.47L211.598 214.143L184.657 206.576L106.625 249.944L97.1734 274.759L29.2184 191.742L91.3062 116.274Z" fill="#DE500A"/>
</mask>
<g mask="url(#mask1_39_352)">
<path d="M97.113 114.688L163.199 186.034L192.802 195.961L203.104 203.804L160.18 198.969L86.0541 112.519L97.113 114.688Z" fill="#CA4A0B"/>
</g>
<path d="M38.8672 195.817L87.0109 256.743L78.2958 254.593C65.907 251.537 55.1554 243.86 48.2428 233.135L17.4825 185.407L38.8672 195.817Z" fill="#CA4A0B"/>
<path d="M263.685 174.089C266.599 171.076 271.704 172.771 272.238 176.928L278.502 225.691C278.943 229.125 275.845 231.957 272.464 231.21L228.436 221.486C224.617 220.642 223.202 215.938 225.921 213.127L263.685 174.089Z" fill="#CA4A0B"/>
<mask id="mask2_39_352" style="mask-type:alpha" maskUnits="userSpaceOnUse" x="224" y="172" width="55" height="60">
<path d="M263.685 174.089C266.599 171.076 271.704 172.771 272.238 176.928L278.502 225.691C278.943 229.125 275.845 231.957 272.464 231.21L228.436 221.486C224.617 220.642 223.202 215.938 225.921 213.127L263.685 174.089Z" fill="#CA4A0B"/>
</mask>
<g mask="url(#mask2_39_352)">
<path d="M267.116 184.885C267.318 183.748 268.967 183.802 269.094 184.95L273.026 220.332C273.394 223.652 270.467 226.393 267.178 225.806L238.05 220.61C236.93 220.41 236.96 218.794 238.087 218.635L258.112 215.82C260.255 215.518 261.96 213.874 262.339 211.744L267.116 184.885Z" fill="#B8430A"/>
</g>
<path d="M178.757 36.8415L260.722 109.763L263.034 146.866L164.514 51.5646L178.757 36.8415Z" fill="#CA4A0B"/>
</g>
<g filter="url(#filter0_i_39_352)">
<path d="M169.733 68.0492C170.928 67.0299 172.703 67.0933 173.825 68.1919C177.115 71.4141 184.938 78.9805 200.356 93.4428C216.445 108.535 225.946 118.146 229.872 122.202C231.046 123.414 230.951 125.341 229.688 126.46L173.793 175.968C172.486 177.125 170.476 176.938 169.405 175.561C165.347 170.342 155.488 157.87 144.352 145.287C133.396 132.907 121.809 122.407 116.698 117.93C115.301 116.706 115.297 114.513 116.709 113.308L169.733 68.0492Z" fill="#FFB088"/>
</g>
<defs>
<filter id="filter0_i_39_352" x="115.65" y="67.3245" width="115.046" height="109.403" filterUnits="userSpaceOnUse" color-interpolation-filters="sRGB">
<feFlood flood-opacity="0" result="BackgroundImageFix"/>
<feBlend mode="normal" in="SourceGraphic" in2="BackgroundImageFix" result="shape"/>
<feColorMatrix in="SourceAlpha" type="matrix" values="0 0 0 0 0 0 0 0 0 0 0 0 0 0 0 0 0 0 127 0" result="hardAlpha"/>
<feOffset dx="1" dy="4"/>
<feComposite in2="hardAlpha" operator="arithmetic" k2="-1" k3="1"/>
<feColorMatrix type="matrix" values="0 0 0 0 0.792157 0 0 0 0 0.290196 0 0 0 0 0.0431373 0 0 0 0.58 0"/>
<feBlend mode="normal" in2="shape" result="effect1_innerShadow_39_352"/>
</filter>
</defs>
</svg>
